<svg width="1074" height="1072" viewBox="0 0 1074 1072" fill="none" xmlns="http://www.w3.org/2000/svg">
<g filter="url(#filter0_dd_82_358)">
<ellipse cx="537" cy="532" rx="533" ry="532" fill="white"/>
</g>
<path d="M506.318 131.939C515.893 138.449 522.169 147.88 525.949 158.786C526.311 162.484 526.311 162.484 526.32 166.506C526.33 168.046 526.34 169.585 526.35 171.171C526.347 172.854 526.343 174.537 526.34 176.271C526.347 178.065 526.355 179.86 526.363 181.709C526.383 186.686 526.385 191.663 526.385 196.64C526.387 202.01 526.406 207.38 526.422 212.749C526.454 224.489 526.466 236.229 526.473 247.969C526.478 255.302 526.487 262.635 526.497 269.967C526.525 290.276 526.549 310.584 526.553 330.893C526.553 332.192 526.553 333.492 526.554 334.83C526.554 337.465 526.555 340.099 526.555 342.733C526.555 344.041 526.556 345.348 526.556 346.696C526.556 348.66 526.556 348.66 526.557 350.663C526.562 371.873 526.6 393.082 526.654 414.291C526.708 436.075 526.736 457.858 526.736 479.642C526.737 491.869 526.749 504.096 526.79 516.323C526.825 526.736 526.835 537.149 526.814 547.562C526.804 552.872 526.805 558.181 526.837 563.491C526.872 569.256 526.852 575.019 526.826 580.784C526.845 582.451 526.863 584.118 526.883 585.835C526.742 599.607 522.313 611.023 513.01 621.275C499.217 632.759 482.085 636.668 464.611 635.043C448.486 631.393 434.621 622.438 424.877 609.104C423.244 606.353 423.244 606.353 423.244 603.484C421.951 603.55 420.659 603.617 419.327 603.685C408.211 604.016 400.04 603.517 390.435 597.745C388.964 596.917 387.493 596.089 385.978 595.235C375.102 586.676 368.623 576.708 364.759 563.317C364.265 558.803 364.382 554.959 364.759 550.407C363.505 550.259 362.251 550.111 360.959 549.958C347.797 547.231 336.571 536.89 329.098 526.02C319.033 508.054 313.991 487.628 318.934 467.116C318.993 465.725 319.052 464.334 319.113 462.902C315.845 459.722 315.845 459.722 313.15 457.864C303.243 449.718 298.537 437.543 294.863 425.605C294.392 424.184 293.921 422.764 293.436 421.301C292.365 399.235 294.038 380.931 309.15 363.467C311.455 361.134 313.785 358.897 316.26 356.748C315.848 355.742 315.436 354.736 315.012 353.7C309.715 340.087 307.775 325.779 312.07 311.567C316.114 302.891 321.12 296.58 328.468 290.497C330.955 287.956 330.955 287.956 330.218 284.165C329.201 280.752 329.201 280.752 327.671 277.85C326.771 265.01 326.214 253.163 333.377 241.988C333.982 241.007 334.587 240.027 335.21 239.018C341.027 230.447 349.127 222.363 359.053 219.035C360.489 214.519 360.489 214.519 361.55 209.083C365.391 192.95 374.269 181.493 387.583 171.697C396.813 166.135 404.992 162.837 415.844 163C417.535 163.019 417.535 163.019 419.26 163.039C420.104 163.056 420.948 163.072 421.818 163.09C422.215 161.359 422.215 161.359 422.62 159.593C428.655 144.552 441.195 134.241 455.428 127.317C472.451 120.722 490.662 122.899 506.318 131.939Z" fill="#99C175"/>
<path d="M536.671 12.8122C539.97 12.8122 543.268 12.8052 546.567 12.7914C581.125 12.6494 581.125 12.6494 596.626 14.7474C598.736 15.0302 600.848 15.2779 602.963 15.5169C612.274 16.5869 621.495 18.0815 630.711 19.7789C631.417 19.9081 632.123 20.0373 632.85 20.1704C652.206 23.7298 671.864 27.4157 690.41 34.105C695.082 35.745 699.832 37.0803 704.609 38.3799C709.934 39.8866 714.945 41.9522 720.034 44.1214C722.953 45.3517 725.887 46.5149 728.843 47.6509C745.625 54.1405 761.721 61.6968 777.789 69.7656C778.71 70.2256 779.631 70.6855 780.579 71.1594C800.088 80.9632 818.763 92.4659 836.469 105.244C837.251 105.809 838.034 106.374 838.841 106.956C848.402 113.885 857.808 120.922 866.82 128.559C867.818 129.383 868.816 130.208 869.844 131.057C884.125 142.905 897.27 155.933 910.388 169.042C911.281 169.933 911.281 169.933 912.192 170.842C918.538 177.178 924.79 183.517 930.559 190.393C931.481 191.464 932.405 192.534 933.329 193.604C939.737 201.135 945.877 208.831 951.805 216.748C952.346 217.467 952.888 218.186 953.446 218.927C961.824 230.07 969.759 241.383 977.098 253.24C977.58 254.014 978.062 254.788 978.558 255.586C986.864 268.98 994.318 282.739 1001.38 296.828C1001.89 297.833 1002.39 298.838 1002.91 299.873C1011.18 316.386 1018.21 333.246 1024.65 350.553C1025 351.498 1025.36 352.443 1025.72 353.416C1030.21 365.516 1033.77 377.773 1037.03 390.258C1037.89 393.468 1038.84 396.653 1039.78 399.843C1042.08 407.876 1043.8 415.984 1045.45 424.171C1045.61 424.926 1045.76 425.682 1045.92 426.46C1049.72 445.217 1052.33 463.765 1053.74 482.862C1053.96 485.428 1053.96 485.428 1054.5 488.163C1055 491.475 1055.15 494.601 1055.18 497.949C1055.19 499.227 1055.2 500.505 1055.22 501.822C1055.23 503.215 1055.23 504.608 1055.24 506.001C1055.25 506.716 1055.25 507.431 1055.26 508.168C1055.29 513.62 1055.31 519.072 1055.32 524.524C1055.32 525.325 1055.32 526.125 1055.32 526.95C1055.37 563.864 1053.36 600.168 1045.89 636.408C1045.65 637.592 1045.41 638.777 1045.16 639.997C1042.21 654.15 1038.91 668.173 1034.77 682.023C1034.57 682.686 1034.37 683.349 1034.17 684.032C1032.75 688.792 1031.26 693.523 1029.71 698.242C1029.47 698.98 1029.22 699.718 1028.97 700.479C1009.33 759.79 978.774 815.578 938.652 863.471C937.783 864.52 936.913 865.569 936.044 866.619C927.697 876.647 919.007 886.361 909.688 895.496C908.131 897.042 908.131 897.042 906.341 899.456C903.975 902.329 901.349 904.56 898.527 906.971C895.775 909.43 893.183 912.03 890.596 914.661C882.817 922.539 874.397 929.484 865.809 936.455C864.683 937.384 863.558 938.313 862.434 939.243C846.887 952.001 830.221 963.28 813.199 973.961C812.587 974.345 811.974 974.73 811.343 975.126C783.494 992.479 753.92 1007.2 723.156 1018.56C721.43 1019.21 719.705 1019.86 717.979 1020.51C702.864 1026.18 687.728 1031.26 672.065 1035.16C670.909 1035.45 670.909 1035.45 669.729 1035.75C641.438 1042.78 612.635 1047.93 583.539 1049.99C582.881 1050.03 582.223 1050.08 581.545 1050.13C567.595 1051.09 553.651 1051.19 539.673 1051.19C535.955 1051.19 532.238 1051.21 528.521 1051.23C507.659 1051.28 486.935 1050.14 466.264 1047.23C463.884 1046.91 461.501 1046.61 459.117 1046.32C362.387 1034.15 266.15 990.459 194.193 924.271C192.105 922.357 189.978 920.5 187.831 918.652C184.328 915.601 181.077 912.35 177.824 909.034C175.956 907.196 174.03 905.511 172.023 903.827C166.661 899.198 162.027 893.88 157.279 888.64C155.516 886.713 153.731 884.808 151.938 882.909C145.399 875.979 139.125 869.014 133.324 861.443C132.268 860.097 131.21 858.753 130.151 857.408C92.1786 809.089 64.3731 756.429 44.3563 698.369C44.1258 697.701 43.8954 697.034 43.6579 696.346C30.2714 657.402 23.6047 616.52 20.0118 575.588C19.9282 574.806 19.8447 574.024 19.7586 573.219C18.9735 565.533 18.837 557.913 18.8301 550.191C18.8269 548.822 18.8234 547.454 18.8199 546.086C18.8139 543.222 18.812 540.358 18.8126 537.494C18.8127 534.624 18.8058 531.755 18.7919 528.885C18.6743 504.325 19.2355 479.752 22.794 455.404C22.9652 454.206 23.1364 453.007 23.3127 451.773C25.2902 438.501 28.101 425.449 31.1407 412.387C31.4219 411.14 31.7031 409.893 31.9929 408.609C39.4759 375.592 50.4955 343.841 64.5274 313.047C65.129 311.707 65.129 311.707 65.7427 310.341C80.9002 276.671 100.431 244.754 123.207 215.734C124.025 214.658 124.84 213.579 125.653 212.499C137.039 197.398 149.52 183.051 163.016 169.806C164.891 167.943 164.891 167.943 167.09 165.051C167.633 164.382 168.175 163.713 168.734 163.023C169.402 163.023 170.07 163.023 170.758 163.023C170.969 162.471 171.18 161.918 171.398 161.349C173.296 158.084 175.94 155.817 178.725 153.33C179.921 152.245 181.118 151.16 182.314 150.075C182.919 149.529 183.525 148.984 184.149 148.421C185.816 146.911 187.467 145.386 189.111 143.851C195.594 137.803 202.258 132.043 209.203 126.531C209.842 126.021 210.48 125.51 211.138 124.984C228.929 110.786 247.474 97.879 266.871 85.9844C267.554 85.562 268.237 85.1396 268.941 84.7044C307.701 60.8249 350.63 42.3157 394.715 30.9343C397.198 30.2811 399.662 29.5852 402.125 28.8624C421.733 23.1087 441.62 19.6896 461.817 16.8013C462.725 16.6687 463.634 16.536 464.57 16.3994C488.566 12.9234 512.473 12.8093 536.671 12.8122ZM490.145 24.5305C489.351 24.5945 488.558 24.6585 487.74 24.7244C480.22 25.3472 472.809 26.0969 465.428 27.7255C461.351 28.5819 457.218 29.0553 453.091 29.5989C443.618 30.9037 434.325 32.6901 424.998 34.7865C422.704 35.2946 420.405 35.7745 418.103 36.2471C408.497 38.2497 399.232 40.8722 389.91 43.9328C386.386 45.0867 382.847 46.1215 379.272 47.1008C318.648 63.9239 260.005 98.0044 212.238 138.695C211.703 139.147 211.169 139.598 210.618 140.063C197.956 150.747 185.897 161.954 174.152 173.637C173.087 174.695 172.021 175.752 170.953 176.808C164.775 182.923 158.976 189.133 153.585 195.975C151.387 198.685 149.057 201.221 146.666 203.76C140.303 210.707 134.815 218.258 129.277 225.871C128.73 226.619 128.183 227.366 127.619 228.136C101.064 264.414 77.784 304.051 62.504 346.498C61.789 348.44 61.0737 350.381 60.358 352.323C56.1717 363.748 52.1545 375.157 48.9461 386.898C48.3054 389.196 47.6232 391.48 46.9369 393.764C39.4637 419.197 34.9774 445.861 32.1524 472.193C32.0595 473.049 31.9665 473.904 31.8707 474.785C30.0521 492.104 29.812 509.346 29.8652 526.736C29.8767 530.532 29.8699 534.327 29.8582 538.122C29.796 562.017 30.2476 585.909 34.5552 609.483C34.7777 610.754 35.0001 612.026 35.2293 613.336C35.8726 616.976 36.5365 620.61 37.211 624.244C37.3859 625.196 37.5609 626.148 37.7411 627.129C38.8213 632.946 40.0075 638.735 41.2579 644.518C41.5802 646.021 41.5802 646.021 41.909 647.555C53.6543 701.856 74.8614 755.848 104.996 802.65C105.601 803.595 106.205 804.54 106.828 805.513C116.338 820.297 126.493 834.464 137.371 848.266C137.962 849.018 138.553 849.771 139.162 850.546C146.193 859.468 153.556 867.965 161.338 876.235C163.195 878.234 164.98 880.294 166.774 882.35C171.485 887.616 176.462 892.612 181.444 897.619C182.257 898.438 183.071 899.258 183.908 900.102C188.805 904.995 193.828 909.656 199.086 914.154C200.217 915.141 201.347 916.128 202.477 917.116C257.199 964.613 322.619 1002.16 392.822 1020.89C395.811 1021.73 398.763 1022.67 401.722 1023.61C408.245 1025.63 414.796 1027.22 421.474 1028.64C423.275 1029.02 423.275 1029.02 425.112 1029.41C455.409 1035.7 486.201 1039.97 517.169 1040.06C518.241 1040.06 518.241 1040.06 519.334 1040.06C523.132 1040.08 526.929 1040.09 530.726 1040.09C533.78 1040.1 536.834 1040.11 539.888 1040.13C568.784 1040.35 597.229 1038.69 625.715 1033.51C626.573 1033.36 627.432 1033.21 628.316 1033.05C653.361 1028.63 677.873 1022.93 701.91 1014.51C703.012 1014.12 704.113 1013.74 705.248 1013.34C747.675 998.34 788.402 978.508 825.34 952.674C826.224 952.058 826.224 952.058 827.126 951.429C844.97 938.944 862.358 925.537 878.254 910.622C880.665 908.371 883.12 906.191 885.6 904.018C890.875 899.275 895.884 894.268 900.903 889.256C901.72 888.441 902.538 887.627 903.381 886.787C908.265 881.881 912.916 876.849 917.406 871.58C918.391 870.447 919.376 869.314 920.362 868.183C927.395 860.048 934.134 851.732 940.676 843.197C941.15 842.584 941.624 841.971 942.113 841.339C973.844 800.229 998 754.287 1015.43 705.446C1016.46 702.55 1017.52 699.663 1018.58 696.777C1022.45 686.162 1025.44 675.508 1028.02 664.512C1028.83 661.191 1029.74 657.898 1030.64 654.599C1032.88 646.302 1034.67 637.942 1036.28 629.503C1036.51 628.323 1036.51 628.323 1036.74 627.119C1040.41 607.789 1042.21 588.284 1043.7 568.68C1043.86 566.646 1044.02 564.613 1044.19 562.58C1045 551.861 1045.13 541.16 1045.14 530.416C1045.14 529.45 1045.14 528.483 1045.14 527.488C1045.1 489.891 1041.06 453.006 1032.43 416.38C1031.95 414.317 1031.47 412.253 1031 410.188C1014.18 336.766 979.555 264.6 930.08 207.554C927.561 204.627 925.134 201.641 922.718 198.629C919.696 194.906 916.576 191.452 913.124 188.13C911.407 186.409 909.842 184.63 908.273 182.774C903.952 177.793 899.32 173.133 894.655 168.479C893.191 167.017 891.732 165.55 890.274 164.083C884.989 158.783 879.602 153.681 873.902 148.832C872.771 147.846 871.641 146.859 870.512 145.87C845.598 124.245 818.648 105.249 789.93 89.0254C789.054 88.5293 788.179 88.0333 787.277 87.5222C763.333 74.0338 738.746 62.6989 712.842 53.538C710.425 52.6822 708.015 51.8109 705.609 50.9256C698.041 48.1576 690.422 45.6683 682.688 43.4102C681.97 43.1949 681.252 42.9796 680.513 42.7578C646.897 32.737 611.406 26.6642 576.457 24.1504C575.249 24.0624 574.042 23.9743 572.797 23.8836C560.805 23.0646 548.828 22.8939 536.81 22.8833C535.274 22.8808 535.274 22.8808 533.706 22.8782C519.136 22.8767 504.668 23.3424 490.145 24.5305Z" fill="white"/>
<path d="M798.005 206.682C798.321 232.79 794.478 258.527 789.421 284.081C789.157 285.419 788.894 286.757 788.622 288.136C778.943 336.191 759.999 384.311 726.062 420.402C723.522 422.962 723.522 422.962 722.178 425.979C721.233 425.979 720.289 425.979 719.316 425.979C719.316 426.925 719.316 427.871 719.316 428.845C691.33 458.569 646.094 477.143 606.29 483.311C604.312 483.337 602.333 483.332 600.355 483.3C594.041 483.312 589.318 483.773 583.399 486.178C576.992 493.182 574.72 503.121 571.953 511.977C571.044 514.602 570.127 517.224 569.203 519.844C564.588 533.279 560.867 546.6 558.913 560.691C558.571 563.099 558.12 565.491 557.646 567.877C553.047 570.18 548.438 569.392 543.339 569.31C541.165 541.843 552.59 512.348 563.369 487.611C563.948 486.155 564.527 484.699 565.124 483.199C589.67 422.513 630.617 370.174 676.248 324.111C677.812 322.532 679.373 320.951 680.932 319.369C690.866 309.301 701.011 299.974 712.163 291.247C689.249 303.831 668.582 319.603 649.211 337.113C648.386 337.859 647.562 338.604 646.712 339.372C641.29 344.295 635.934 349.283 630.612 354.313C629.644 355.222 628.676 356.131 627.678 357.068C620.336 364.169 614.083 372.137 607.721 380.113C606.561 381.504 605.401 382.895 604.205 384.329C583.745 409.151 567.542 437.321 553.354 466.111C552.882 466.111 552.409 466.111 551.923 466.111C547.959 452.213 547.199 438.781 547.184 424.366C547.176 422.695 547.169 421.023 547.161 419.301C547.544 370.628 567.628 326.665 601.998 292.681C630.553 265.93 667.413 247.905 703.578 233.915C705.468 233.183 705.468 233.183 707.395 232.437C724.037 226.062 740.729 220.614 757.95 216.059C762.362 214.858 766.724 213.506 771.09 212.146C773.292 211.462 773.292 211.462 775.539 210.763C777.851 210.037 780.162 209.304 782.469 208.557C787.785 206.902 792.444 206.41 798.005 206.682Z" fill="#84D1BE"/>
<path d="M500.249 144.217C506.537 149.129 510.74 154.72 513.121 162.439C513.791 169.368 513.66 176.217 513.477 183.169C513.451 185.027 513.426 186.885 513.399 188.799C513.332 193.357 513.239 197.913 513.121 202.47C510.284 201.054 507.459 199.633 504.666 198.13C498.916 195.085 494.028 193.121 487.456 192.462C487.456 194.821 487.456 197.18 487.456 199.61C489.618 200.008 489.618 200.008 491.823 200.415C500.458 202.921 506.224 209.957 510.893 217.392C515.042 226.297 513.538 237.215 513.121 246.789C512.43 246.236 511.739 245.683 511.027 245.114C503.645 239.363 496.116 234.427 487.189 231.454C484.605 229.633 484.605 229.633 483.736 225.601C483.67 224.042 483.603 222.483 483.535 220.877C483.454 219.31 483.373 217.744 483.29 216.13C483.253 214.924 483.217 213.719 483.179 212.477C480.826 212.477 478.474 212.477 476.05 212.477C476.138 214.011 476.226 215.544 476.317 217.124C476.029 222.907 475.782 224.266 471.772 228.204C465.18 230.487 458.777 231.355 451.811 231.063C447.374 228.508 444.895 225.089 441.83 221.055C432.145 213.569 422.526 211.638 410.479 211.835C401.833 213.128 395.705 217.96 390.501 224.808C389.223 227.852 388.249 230.678 387.65 233.922C391.022 233.75 391.022 233.75 394.779 232.492C396.739 230.158 398.638 227.771 400.482 225.344C405.992 220.632 411.131 220.323 418.121 220.553C427.899 221.864 435.64 226.313 441.83 233.922C441.83 234.866 441.83 235.809 441.83 236.781C439.536 238.948 439.536 238.948 436.484 241.428C430.172 246.805 425.955 251.653 423.295 259.656C420.438 260.711 420.438 260.711 416.79 261.532C407.621 264.106 400.798 267.806 395.391 275.857C392.294 281.634 390.284 286.306 390.234 292.896C389.075 298.257 389.075 298.257 386.135 300.468C383.609 301.87 381.064 303.24 378.504 304.579C372.101 308.497 368.153 314.482 364.837 321.131C364.623 324.343 364.521 327.563 364.48 330.781C364.425 333.38 364.425 333.38 364.369 336.031C364.873 341.539 366.357 344.98 369.114 349.724C371.467 349.724 373.819 349.724 376.243 349.724C375.537 348.073 374.832 346.422 374.104 344.721C371.467 337.498 370.134 331.176 373.219 323.89C377.152 317.043 382.352 311.052 389.075 306.835C390.487 306.835 391.899 306.835 393.353 306.835C395.13 309.186 395.13 309.186 396.828 312.285C398.811 315.887 400.01 317.962 403.473 320.238C407.376 323.581 407.14 326.37 407.611 331.407C408.85 340.883 410.198 348.544 417.547 355.08C419.519 356.573 421.526 358.021 423.573 359.408C426.146 361.162 426.146 361.162 428.998 364.021C428.322 365.731 427.645 367.441 426.948 369.203C424.847 375.284 424.494 380.657 424.364 387.074C423.997 393.767 423.617 397.876 418.928 402.8C413.746 407.036 408.067 410.074 401.908 412.629C400.801 413.142 399.695 413.654 398.555 414.182C388.593 417.629 376.137 416.599 366.368 412.797C360.205 409.468 353.206 404.917 350.98 398.014C350.847 397.176 350.715 396.337 350.579 395.473C348.226 395.945 345.873 396.417 343.45 396.903C348.024 408.599 353.604 415.406 364.837 421.207C372.321 423.936 379.765 424.815 387.65 425.496C387.297 427.221 387.297 427.221 386.937 428.981C386.701 430.662 386.466 432.343 386.224 434.074C386.077 434.975 385.93 435.877 385.778 436.805C384.781 447.949 390.338 457.82 396.204 466.956C400.062 470.528 402.632 472.44 407.611 474.105C408.688 471.495 408.688 471.495 409.037 468.386C407.489 465.868 407.489 465.868 405.116 463.65C396.154 453.702 395.746 445.967 395.915 432.801C396.204 428.356 396.204 428.356 397.63 424.067C400.487 422.698 400.487 422.698 404.136 421.475C410.71 419.048 415.548 415.958 420.883 411.445C423.295 409.77 423.295 409.77 427.572 409.77C427.971 410.686 428.37 411.602 428.781 412.546C435.685 427.481 444.695 434.806 458.94 442.652C458.469 444.244 457.999 445.837 457.514 447.477C454.427 460.219 455.435 471.114 461.792 482.683C464.449 486.316 467.229 489.422 470.346 492.69C467.522 502.034 461.202 508.805 453.148 514.046C444.927 518.237 436.573 518.446 427.572 516.994C423.22 515.217 419.509 513.188 416.166 509.846C416.166 506.987 416.166 506.987 418.839 503.949C421.869 501.268 421.869 501.268 424.721 501.268C424.721 500.325 424.721 499.381 424.721 498.409C420.863 497.045 420.863 497.045 416.166 496.979C412.159 499.97 412.159 499.97 409.739 502.296C404.346 506.938 397.424 507.652 390.518 507.428C381.599 506.056 376.201 500.192 370.774 493.528C365.982 486.982 366.622 479.015 367.688 471.245C369.549 467.722 371.564 465.067 374.233 462.126C376.575 459.725 376.575 459.725 377.669 455.519C377.198 454.575 376.728 453.632 376.243 452.66C368.133 455.144 365.111 460.111 360.559 466.956C351.118 466.518 344.56 464.465 336.321 459.808C337.093 453.964 338.805 450.627 342.469 446.048C343.317 444.968 344.164 443.888 345.037 442.775C347.636 439.894 350.254 437.711 353.43 435.504C352.724 431.965 352.724 431.965 352.004 428.356C342.185 434.943 334.113 441.133 327.766 451.23C318.223 446.888 313.567 439.402 309.408 429.964C304.829 417.094 303.426 401.144 308.696 388.236C312.995 380.334 318.468 373.133 324.914 366.88C329.686 368.578 333.916 370.778 338.281 373.314C350.114 379.897 361.393 381.185 374.817 379.747C382.825 377.396 390.588 374.732 396.204 368.31C395.734 366.895 395.263 365.479 394.779 364.021C393.749 364.67 392.72 365.318 391.66 365.987C380.097 372.685 367.584 372.927 354.65 370.237C341.218 365.848 332.714 358.041 326.212 345.597C322.362 336.633 321.789 325.787 324.413 316.39C327.717 309.155 332.76 302.95 339.172 298.257C347.033 295.821 352.903 297.397 360.559 299.686C360.559 297.327 360.559 294.969 360.559 292.538C359.819 292.225 359.078 291.912 358.315 291.589C350.912 288.214 346.706 284.928 342.024 278.242C339.207 269.767 339.116 260.203 343.004 252.061C347.41 244.486 351.748 237.876 360.559 235.352C360.872 236.115 361.184 236.878 361.506 237.664C364.202 244.016 367.166 250.151 370.54 256.171C371.216 257.382 371.893 258.593 372.59 259.84C373.325 260.723 374.06 261.606 374.817 262.515C376.699 262.515 378.582 262.515 380.521 262.515C380.023 261.496 379.524 260.477 379.011 259.427C371.942 244.508 368.725 227.693 373.57 211.405C378.828 198.052 388.035 186.581 400.504 179.361C412.675 174.377 429.446 174.743 441.652 179.238C445.279 180.791 447.099 181.867 449.449 185.046C450.706 189.244 449.827 191.567 448.425 195.679C448.002 196.954 447.579 198.229 447.144 199.543C446.802 200.509 446.46 201.475 446.108 202.47C448.931 202.47 451.754 202.47 454.663 202.47C454.721 201.29 454.78 200.111 454.841 198.896C457.029 190.12 462.541 183.551 469.723 178.165C477.397 173.68 486.004 174.716 494.585 175.306C494.585 172.475 494.585 169.645 494.585 166.728C475.498 166.875 475.498 166.875 459.363 176.211C458.753 176.856 458.143 177.501 457.514 178.165C452.463 176.213 447.639 174.006 442.811 171.553C441.552 170.916 440.293 170.278 438.995 169.621C438.049 169.138 437.102 168.655 436.127 168.158C436.473 161.041 438.673 157.142 443.34 152.057C459.181 137.835 481.449 132.234 500.249 144.217Z" fill="#FCFCFB"/>
<path d="M495.362 243.796C502.931 249.014 509.701 255.291 513.849 263.579C515.042 271.32 514.804 278.833 514.474 286.636C514.424 288.721 514.378 290.806 514.338 292.891C514.228 297.957 514.056 303.017 513.849 308.079C508.879 310.572 503.545 310.177 498.112 309.515C490.133 305.436 484.265 299.242 480.944 290.853C480.564 286.098 480.564 286.098 480.587 280.805C480.576 278.185 480.576 278.185 480.564 275.511C480.916 271.111 481.495 268.694 483.805 265.014C480.973 264.541 478.14 264.067 475.222 263.579C472.903 270.762 472.061 276.869 471.913 284.483C471.221 296.224 471.221 296.224 467.979 300.453C458.62 307.846 451.426 310.515 439.456 309.515C438.984 312.357 438.512 315.199 438.026 318.128C456.371 316.695 456.371 316.695 472.36 308.079C473.305 308.079 474.249 308.079 475.222 308.079C475.222 307.132 475.222 306.184 475.222 305.208C479.208 306.9 481.739 308.773 485.057 311.668C491.572 317.183 497.938 318.196 506.276 318.913C508.403 319.098 508.403 319.098 510.573 319.287C511.654 319.378 512.735 319.469 513.849 319.563C513.99 326.969 514.094 334.375 514.163 341.782C514.192 344.3 514.231 346.817 514.28 349.334C514.35 352.962 514.382 356.588 514.407 360.217C514.437 361.334 514.466 362.451 514.497 363.602C514.5 371.132 513.029 375.279 508.126 381.289C501.864 386.811 495.733 387.781 487.594 387.721C480.937 386.509 476.324 382.351 472.36 376.983C471.338 373.052 471.338 373.052 470.93 369.805C467.389 370.516 467.389 370.516 463.777 371.241C466.504 381.452 469.658 387.333 478.424 393.642C483.264 396.095 486.715 396.266 492.121 396.272C493.783 396.3 495.444 396.328 497.156 396.356C501.912 395.711 504.324 394.892 508.454 392.729C509.469 392.202 510.484 391.676 511.529 391.133C512.295 390.727 513.06 390.321 513.849 389.902C513.882 403.54 513.907 417.179 513.923 430.817C513.93 437.149 513.94 443.481 513.956 449.813C513.972 455.919 513.981 462.025 513.984 468.13C513.987 470.465 513.992 472.8 514 475.134C514.01 478.393 514.012 481.652 514.011 484.911C514.014 486.769 514.017 488.627 514.021 490.542C513.849 494.693 513.849 494.693 512.418 496.129C500.5 497.602 490.448 494.926 480.564 488.172C473.988 482.832 468.79 477.203 466.638 468.854C465.127 452.467 465.127 452.467 469.499 445.886C476.581 446.36 483.662 446.834 490.959 447.322C490.959 444.48 490.959 441.637 490.959 438.709C489.885 438.775 488.812 438.842 487.706 438.911C471.888 439.47 459.709 435.23 448.04 424.354C438.226 413.982 433.486 401.729 433.108 387.48C433.338 379.744 434.753 373.912 438.026 366.934C441.802 366.934 445.579 366.934 449.471 366.934C449.471 363.618 449.471 360.302 449.471 356.886C446.903 357.019 446.903 357.019 444.285 357.155C435.36 357.139 428.597 353.001 422.289 346.837C417.541 340.235 416.324 334.46 416.03 326.382C415.904 322.011 415.904 322.011 415.136 318.128C411.218 314.389 411.218 314.389 406.552 312.386C400.614 305.605 400.33 299.182 400.433 290.455C401.205 282.851 405.529 278.666 411.023 273.896C418.709 268.028 425.718 268.601 435.164 269.321C440.172 271.295 440.172 271.295 443.748 273.627C446.8 275.4 446.8 275.4 449.471 276.498C450.415 276.025 451.359 275.551 452.332 275.063C450.958 270.19 449.965 268.229 445.749 265.3C444.321 264.584 442.894 263.868 441.423 263.13C439.271 262.028 439.271 262.028 437.076 260.904C435.973 260.366 434.87 259.827 433.734 259.272C438.707 250.308 446.548 242.005 456.378 238.362C469.827 235.668 483.503 236.817 495.362 243.796Z" fill="#FCFDFC"/>
<path d="M770.649 382.99C774.899 386.508 775.755 389.001 776.368 394.449C777.882 419.033 775.833 436.809 759.212 456.04C757.554 457.346 755.862 458.611 754.119 459.8C752.394 461.484 752.394 461.484 750.634 463.202C750.671 468.336 750.671 468.336 751.416 472.031C754.645 492.281 751.26 510.315 739.643 527.478C731.581 537.811 721.741 546.463 709.173 550.575C707.757 550.575 706.342 550.575 704.883 550.575C705.033 551.982 705.033 551.982 705.185 553.417C705.957 566.458 701.931 576.333 693.909 586.58C683.701 597.418 670.624 604.445 655.57 605.178C654.475 605.209 653.381 605.241 652.253 605.273C648.351 605.611 646.818 605.865 644.065 608.714C642.697 610.709 641.356 612.722 640.039 614.751C631.457 626.229 615.771 632.848 601.945 635.084C584.6 636.49 570.975 633.299 557.535 621.974C549.408 614.21 544.031 604.755 543.071 593.361C543.061 591.034 543.18 588.706 543.328 586.384C547.574 585.911 551.82 585.438 556.195 584.951C556.578 586.901 556.962 588.851 557.357 590.86C559.872 601.889 564.057 608.628 573.351 615.031C583.702 620.586 594.694 620.788 606.234 619.328C616.326 615.905 627.003 610.657 631.969 600.707C631.053 600.203 630.137 599.699 629.193 599.18C614.924 591.02 606.977 582.157 599.086 567.763C597.707 568.607 596.329 569.451 594.909 570.32C593.085 571.408 591.26 572.496 589.435 573.582C588.529 574.141 587.622 574.699 586.688 575.275C579.778 579.349 579.778 579.349 575.902 578.654C575.06 578.369 574.219 578.084 573.351 577.79C573.351 575.426 573.351 573.063 573.351 570.628C574.181 570.227 575.01 569.827 575.865 569.414C587.038 563.669 594.735 556.357 599.51 544.538C601.977 534.748 602.974 522.766 598.533 513.491C596.234 510.122 596.234 510.122 593.674 507.314C591.937 504.74 591.937 504.74 592.39 501.54C592.874 500.288 592.874 500.288 593.367 499.011C598.014 498.473 598.014 498.473 603.375 499.011C605.385 501.803 607.277 504.682 609.094 507.605C619.469 515.623 628.985 517.49 641.977 516.199C645.912 514.694 648.546 512.974 651.985 510.469C651.041 509.14 650.097 507.811 649.125 506.441C646.266 501.875 646.266 501.875 646.266 497.578C648.718 496.605 648.718 496.605 651.985 496.146C655.207 497.836 655.207 497.836 658.508 500.264C665.665 505.464 671.666 507.366 680.579 506.172C684.623 504.626 688.272 502.602 692.016 500.443C693.917 499.477 695.822 498.519 697.735 497.578C699.15 498.996 700.566 500.414 702.024 501.875C700.63 507.46 699.332 508.926 694.429 512.17C692.682 513.056 690.925 513.923 689.157 514.766C688.066 515.357 686.975 515.948 685.851 516.557C679.157 518.428 671.343 518.74 664.651 516.697C663.774 516.532 662.896 516.368 661.993 516.199C659.943 517.918 657.899 519.646 655.905 521.43C646.32 528.859 633.513 528.816 621.961 527.658C618.19 526.582 615.396 525.286 611.953 523.36C612.02 524.402 612.086 525.443 612.154 526.516C612.457 534.975 611.909 541.627 608.915 549.59C607.094 554.668 606.221 557.475 606.502 562.929C614.338 577.547 625.101 585.66 640.547 590.681C640.854 578.835 640.653 567.817 637.688 556.304C639.575 555.359 641.462 554.414 643.406 553.44C650.929 566.383 653.896 575.612 653.414 590.681C665.354 587.976 675.108 584.703 683.885 575.91C688.3 568.865 690.507 561.58 692.016 553.44C690.654 553.473 689.292 553.506 687.889 553.541C686.096 553.566 684.303 553.592 682.455 553.619C680.68 553.652 678.906 553.685 677.077 553.72C672.269 553.455 669.143 552.663 664.852 550.575C665.324 548.212 665.796 545.848 666.282 543.413C668.949 543.358 668.949 543.358 671.671 543.301C691.491 542.706 707.154 540.519 722.04 526.225C734.194 513.053 738.08 499.841 737.856 482.001C737.846 480.522 737.846 480.522 737.836 479.014C737.82 476.608 737.794 474.202 737.766 471.796C736.508 472.106 735.249 472.416 733.952 472.736C732.292 473.135 730.631 473.534 728.92 473.944C727.278 474.343 725.636 474.742 723.944 475.153C719.798 475.971 716.234 476.283 712.032 476.093C711.952 477.544 711.952 477.544 711.87 479.025C711.776 480.302 711.682 481.58 711.585 482.897C711.502 484.16 711.419 485.422 711.334 486.724C710.511 490.879 709.064 492.984 706.313 496.146C703.482 494.728 703.482 494.728 700.594 493.281C700.628 491.813 700.661 490.345 700.695 488.833C700.722 486.884 700.748 484.935 700.773 482.986C700.809 481.539 700.809 481.539 700.846 480.063C700.902 474.248 700.309 469.862 697.735 464.634C700.326 462.396 700.326 462.396 703.454 460.337C707.743 461.769 707.743 461.769 709.173 464.634C717.651 465.176 724.145 463.353 732.048 460.337C731.494 455.487 730.749 453.333 727.58 449.505C724.899 446.014 724.899 446.014 724.899 442.88C726.329 440.284 726.329 440.284 732.048 437.42C735.35 441.674 738.653 445.928 742.056 450.311C752.35 445.154 757.447 437.177 761.133 426.38C762.48 419.61 762.047 413.1 761.761 406.233C761.583 396.703 764.571 390.367 770.649 382.99Z" fill="#99C076"/>
<path d="M625.559 134.013C635.51 141.245 644.704 150.982 647.53 163.246C649.269 163.099 651.009 162.951 652.801 162.799C668.36 162.824 682.215 171.024 693.074 181.578C702.456 191.576 708.228 202.43 708.992 216.2C703.332 217.617 703.332 217.617 697.557 219.063C697.141 217.956 696.725 216.849 696.296 215.708C688.729 196.458 679.426 185.894 660.394 177.558C648.985 173.994 638.351 176.186 627.519 180.421C624.661 181.375 621.802 182.329 618.943 183.283C619.651 185.025 620.358 186.766 621.087 188.561C622.838 193.194 623.7 196.881 623.231 201.888C620.401 201.888 617.571 201.888 614.655 201.888C614.255 200.955 613.855 200.021 613.443 199.06C608.451 188.161 603.063 180.982 591.785 176.395C586.586 174.667 581.504 173.832 576.063 173.265C576.063 170.903 576.063 168.542 576.063 166.109C588.503 165.14 597.138 165.254 607.386 172.818C610.586 175.204 610.586 175.204 616.084 174.696C620.079 172.834 620.079 172.834 624.125 170.402C631.529 166.109 631.529 166.109 634.666 166.109C627.91 154.577 619.915 145.39 606.844 141.018C601.804 140.085 596.807 139.885 591.696 139.811C590.734 139.791 589.773 139.771 588.782 139.75C579.854 139.835 573.371 142.104 566.504 147.861C556.845 159.363 556.735 167.649 557.124 182.478C557.162 185.277 557.162 185.277 557.202 188.133C557.269 192.719 557.363 197.303 557.481 201.888C559.624 200.086 561.768 198.284 563.911 196.481C569.798 191.684 574.22 191.579 581.78 191.87C582.252 194.232 582.723 196.593 583.209 199.026C580.6 199.867 580.6 199.867 577.939 200.726C568.16 204.483 563.359 211.305 558.916 220.522C556.264 228.407 556.183 236.563 556.052 244.824C556.831 244.167 557.611 243.51 558.414 242.834C575.294 229.081 575.294 229.081 584.639 229.081C584.639 223.413 584.639 217.746 584.639 211.907C587.469 211.907 590.299 211.907 593.215 211.907C593.541 214.749 593.866 217.59 594.192 220.432C594.604 223.634 594.604 223.634 596.074 227.65C597.022 227.633 597.971 227.616 598.949 227.599C600.211 227.586 601.473 227.574 602.774 227.56C604.017 227.544 605.261 227.527 606.542 227.51C610.367 227.65 610.367 227.65 614.03 228.745C617.716 229.508 617.716 229.508 620.624 226.604C622.136 224.864 622.136 224.864 623.678 223.088C632.3 213.986 638.327 210.247 651.014 209.76C661.516 210.113 669.899 212.685 677.636 219.957C680.405 223.356 680.405 223.356 680.405 226.218C676.564 228.007 676.564 228.007 671.829 229.081C667.988 226.487 667.988 226.487 664.682 223.356C657.178 220.852 648.745 220.297 641.299 223.272C635.538 226.731 631.35 230.644 627.519 236.237C628.345 236.621 629.17 237.004 630.021 237.4C633.283 239.124 636.058 241.114 638.954 243.393C637.882 246.166 637.882 246.166 636.095 249.117C633.41 250.219 633.41 250.219 630.378 250.549C627.957 248.837 625.542 247.115 623.181 245.321C612.964 238.305 600.931 237.825 588.927 239.099C576.736 241.868 566.829 249.326 559.5 259.389C556.978 264.435 556.865 268.202 556.75 273.833C556.724 274.808 556.698 275.783 556.672 276.787C556.595 279.878 556.546 282.968 556.498 286.06C556.451 288.165 556.402 290.27 556.35 292.374C556.229 297.515 556.134 302.655 556.052 307.796C559.354 308.268 562.655 308.74 566.057 309.227C564.17 312.533 562.284 315.839 560.34 319.245C558.925 319.245 557.51 319.245 556.052 319.245C555.936 320.635 555.82 322.024 555.7 323.455C554.729 330.258 551.841 335.949 548.816 342.055C548.277 343.17 547.738 344.285 547.183 345.434C545.863 348.16 544.527 350.878 543.188 353.594C542.716 353.594 542.244 353.594 541.758 353.594C541.624 329.234 541.524 304.875 541.462 280.515C541.433 269.203 541.393 257.891 541.327 246.579C541.27 236.714 541.233 226.849 541.22 216.984C541.213 211.765 541.196 206.547 541.154 201.329C541.107 195.488 541.107 189.648 541.109 183.807C541.089 182.097 541.068 180.387 541.047 178.625C541.123 163.09 544.886 148.789 556.052 137.485C560.121 134.159 564.323 131.443 568.916 128.898C569.778 128.409 570.64 127.92 571.529 127.417C588.698 119.382 610.072 124.727 625.559 134.013Z" fill="#99C177"/>
<path d="M332.223 470.166C333.239 470.46 334.255 470.754 335.301 471.056C342.823 473.186 350.1 475.032 357.87 475.901C358.079 477.408 358.079 477.408 358.293 478.947C360.304 491.786 363.162 501.782 373.704 509.943C383.191 516.288 391.615 516.456 402.683 515.884C410.025 515.603 410.025 515.603 413.153 518.047C413.998 519.183 413.998 519.183 414.861 520.343C426.629 527.036 439.81 527.944 452.885 524.644C455.221 523.934 455.221 523.934 457.605 523.21C457.685 525.004 457.685 525.004 457.766 526.833C458.402 538.016 458.402 538.016 461.345 548.746C463.762 555.286 463.543 559.411 461.879 566.219C455.621 578.085 446.146 586.583 433.383 590.59C431.973 590.59 430.562 590.59 429.109 590.59C425.45 583.227 426.447 571.414 428.959 563.777C430.534 560.663 430.534 560.663 433.383 556.183C431.033 555.71 428.682 555.237 426.26 554.75C425.349 556.287 424.438 557.825 423.499 559.409C422.987 560.274 422.474 561.139 421.946 562.03C418.899 568.088 418.767 574.199 418.334 580.913C418.215 582.724 418.095 584.535 417.972 586.401C417.843 588.475 417.843 588.475 417.711 590.59C407.545 591.537 400.535 589.169 392.065 583.422C385.247 577.282 380.562 570.694 377.817 561.918C377.817 559.079 377.817 556.241 377.817 553.316C386.28 552.37 394.743 551.424 403.463 550.449C403.463 548.083 403.463 545.718 403.463 543.281C401.88 543.331 400.297 543.381 398.665 543.432C378.953 543.874 362.735 541.407 347.568 527.455C335.214 514.255 330.585 501.421 330.621 483.427C330.617 481.542 330.613 479.657 330.609 477.715C330.799 473.033 330.799 473.033 332.223 470.166Z" fill="#FBFCFA"/>
<path d="M480.178 500.576C482.745 501.638 482.745 501.638 485.364 502.721C491.564 504.835 497.012 505.091 503.548 504.999C506.233 504.97 506.233 504.97 508.971 504.94C510.328 504.916 511.684 504.891 513.082 504.865C513.215 516.2 513.317 527.534 513.379 538.869C513.408 544.134 513.449 549.398 513.514 554.662C513.576 559.751 513.61 564.84 513.625 569.929C513.641 572.796 513.685 575.664 513.73 578.531C513.733 590.638 512.445 600.07 504.7 609.664C492.85 619.499 483.718 621.507 468.202 621.168C461.19 620.49 456.072 618.647 450.134 614.947C449.194 614.38 448.253 613.812 447.284 613.227C441.838 609.659 439.041 606.408 435.828 600.651C436.848 600.061 437.868 599.471 438.919 598.864C453.104 590.316 461.331 581.065 468.733 566.339C477.316 570.628 485.9 574.917 494.484 579.206C494.956 576.376 495.428 573.545 495.915 570.628C494.852 570.483 493.79 570.337 492.696 570.187C484.039 568.012 477.84 560.525 473.203 553.205C472.156 551.407 471.141 549.591 470.163 547.754C469.636 546.918 469.108 546.081 468.565 545.219C466.723 540.576 466.925 536.376 466.944 531.403C466.937 529.547 466.93 527.691 466.922 525.779C467.522 517.586 470.253 512.881 475.349 506.563C476.705 504.868 476.705 504.868 478.088 503.139C478.777 502.294 479.467 501.448 480.178 500.576Z" fill="#FBFCFB"/>
<path d="M323.527 687.092C349.16 687.092 349.16 687.092 356.585 693.648C363.722 701.482 364.131 709.86 363.971 720.219C363.276 728.475 359.81 733.54 354.174 739.271C343.684 747.329 338.788 744.322 323.527 744.322C323.527 725.436 323.527 706.55 323.527 687.092Z" fill="#80A5B9"/>
<path d="M137.371 687.092C167.904 687.092 167.904 687.092 176.111 695.338C178.534 700.169 177.873 705.49 177.313 710.744C175.23 716.22 171.758 718.559 166.74 721.388C159.48 723.365 151.87 722.64 144.42 722.57C144.42 729.595 144.42 736.62 144.42 743.857C142.094 743.857 139.768 743.857 137.371 743.857C137.371 725.125 137.371 706.392 137.371 687.092Z" fill="#7CA2B9"/>
<path d="M235.525 702.417C241.147 704.928 244.146 707.695 247.056 713.224C249.23 720.259 249.41 727.806 246.25 734.538C243.31 739.644 239.832 742.672 234.16 744.542C228.689 745.171 224.691 745.087 219.726 742.585C215.969 739.386 212.94 736.188 210.714 731.783C210.508 728.984 210.4 726.179 210.348 723.373C210.304 721.86 210.26 720.347 210.215 718.788C210.941 712.385 213.679 708.927 218.481 704.742C223.891 700.938 229.216 700.445 235.525 702.417Z" fill="#7BA0B6"/>
<path d="M822.674 701.639C826.474 703.163 829.872 704.889 832.243 708.363C833.506 711.897 833.455 714.91 833.421 718.662C833.414 720.128 833.406 721.595 833.398 723.105C833.379 724.632 833.359 726.159 833.339 727.732C833.329 729.277 833.318 730.822 833.307 732.414C833.28 736.229 833.241 740.043 833.193 743.857C830.879 743.857 828.565 743.857 826.18 743.857C826.146 742.437 826.146 742.437 826.11 740.988C825.999 736.716 825.871 732.444 825.742 728.172C825.706 726.681 825.67 725.191 825.632 723.655C825.565 721.524 825.565 721.524 825.496 719.349C825.459 718.035 825.422 716.721 825.384 715.366C825.322 712.021 825.322 712.021 822.674 709.848C820.215 709.43 820.215 709.43 817.488 709.482C816.573 709.462 815.658 709.442 814.716 709.422C811.445 709.966 810.636 710.72 808.649 713.366C808.057 716.653 808.057 716.653 808.051 720.38C808.009 721.744 807.968 723.108 807.925 724.514C807.899 725.939 807.872 727.364 807.845 728.832C807.805 730.27 807.765 731.709 807.724 733.191C807.628 736.746 807.547 740.301 807.48 743.857C805.166 743.857 802.851 743.857 800.467 743.857C800.438 742.952 800.409 742.047 800.378 741.114C800.243 737.02 800.099 732.926 799.956 728.832C799.91 727.407 799.864 725.982 799.817 724.514C799.768 723.15 799.719 721.785 799.668 720.38C799.625 719.121 799.582 717.862 799.538 716.565C799.421 713.257 799.421 713.257 798.13 709.848C796.478 709.554 794.821 709.291 793.162 709.042C792.24 708.892 791.318 708.742 790.368 708.588C786.705 708.704 785.521 709.61 782.935 712.194C782.183 715.587 782.183 715.587 782.223 719.464C782.185 720.881 782.148 722.298 782.109 723.758C782.084 725.979 782.084 725.979 782.059 728.245C782.024 729.74 781.989 731.234 781.954 732.774C781.871 736.468 781.81 740.162 781.767 743.857C779.452 743.857 777.138 743.857 774.754 743.857C774.754 730.312 774.754 716.767 774.754 702.812C777.068 702.812 779.382 702.812 781.767 702.812C781.767 703.973 781.767 705.134 781.767 706.33C782.851 705.459 782.851 705.459 783.958 704.571C789.022 702.132 793.76 702.116 799.298 702.812C802.357 704.069 803.952 705.136 806.311 707.503C807.492 706.535 808.673 705.568 809.89 704.571C814.312 701.437 817.201 700.756 822.674 701.639Z" fill="#79A0B3"/>
<path d="M488.774 786.768C492.199 788.519 492.199 788.519 494.482 790.271C494.482 789.5 494.482 788.73 494.482 787.935C495.989 787.935 497.496 787.935 499.049 787.935C499.162 793.317 499.245 798.698 499.3 804.081C499.323 805.91 499.354 807.739 499.394 809.569C499.449 812.204 499.475 814.838 499.495 817.474C499.519 818.287 499.542 819.1 499.566 819.937C499.568 824.113 499.145 826.324 496.903 829.861C493.095 833.72 490.126 834.499 484.85 835.088C480.065 834.573 477.684 832.973 473.933 829.978C474.309 828.437 474.686 826.895 475.074 825.307C475.639 825.692 476.205 826.078 476.787 826.475C481.03 828.211 484.201 828.014 488.774 827.643C491.16 826.374 491.16 826.374 492.199 824.139C492.199 822.598 492.199 821.056 492.199 819.468C491.587 819.853 490.975 820.239 490.344 820.636C486.79 822.166 484.617 822.353 480.783 821.803C475.903 818.444 473.428 815.809 471.649 810.125C470.62 801.821 471.308 795.846 476.216 789.103C480.435 786.226 483.877 786.095 488.774 786.768Z" fill="#83A4B3"/>
<path d="M372.149 774.36C375.926 775.182 377.648 776.436 380.05 779.523C380.832 785.15 380.936 787.492 377.915 792.255C376.349 793.865 374.783 795.474 373.217 797.084C374.303 798.625 375.395 800.16 376.491 801.694C377.099 802.549 377.707 803.405 378.333 804.287C379.914 806.58 379.914 806.58 382.328 807.621C383.08 805.302 383.832 802.984 384.606 800.596C386.109 800.596 387.613 800.596 389.162 800.596C388.958 801.57 388.754 802.543 388.543 803.546C388.301 804.818 388.059 806.09 387.809 807.401C387.558 808.664 387.307 809.927 387.049 811.229C386.51 814.649 386.51 814.649 388.535 816.707C389.117 817.186 389.7 817.664 390.301 818.157C390.301 818.93 390.301 819.702 390.301 820.498C383.944 820.647 383.944 820.647 381.118 819.767C378.794 819.091 378.794 819.091 376.278 820.425C372.303 822.041 369.493 822.129 365.244 821.669C361.734 819.763 359.249 818.122 356.845 814.864C355.789 811.067 355.73 808.039 356.133 804.108C358.178 800.885 359.609 798.809 362.966 797.084C361.375 792.934 361.375 792.934 359.55 788.889C358.996 783.863 359.023 781.489 361.827 777.255C365.647 774.555 367.623 774.016 372.149 774.36Z" fill="#81A3B3"/>
<path d="M331.621 694.188C346.377 694.188 346.377 694.188 350.492 696.534C356.283 704.094 357.634 711.643 356.593 721.173C355.508 726.731 354.269 730.615 350.35 734.666C343.598 738.854 340.898 737.599 331.621 737.599C331.621 723.273 331.621 708.948 331.621 694.188Z" fill="#FAFAFB"/>
<path d="M575.265 703.034C579.323 704.979 580.859 706.172 583.39 709.932C583.76 713.383 583.76 713.383 583.871 717.561C583.916 719.054 583.96 720.547 584.007 722.085C584.043 723.662 584.079 725.239 584.116 726.816C584.16 728.406 584.205 729.997 584.252 731.587C584.361 735.481 584.46 739.375 584.551 743.269C581.214 743.413 581.214 743.413 577.587 743.269C576.821 742.511 576.055 741.752 575.265 740.97C574.523 741.539 573.781 742.108 573.016 742.694C568.259 745.002 564.227 745.288 559.016 744.419C555.684 742.357 553.802 740.99 552.051 737.521C550.689 727.869 550.689 727.869 553.525 724.032C558.867 719.655 562.265 718.991 569.027 719.056C570.406 719.067 571.786 719.077 573.207 719.088C574.269 719.101 575.331 719.114 576.426 719.128C576.043 716.093 575.66 713.058 575.265 709.932C573.599 709.676 571.93 709.44 570.26 709.213C569.331 709.08 568.401 708.946 567.444 708.809C564.486 708.534 564.486 708.534 561.337 711.081C560.954 712.219 560.571 713.357 560.176 714.53C557.495 714.53 554.814 714.53 552.051 714.53C552.285 710.478 553.235 708.754 555.824 705.549C561.295 701.369 568.75 702.065 575.265 703.034Z" fill="#7CA3B7"/>
<path d="M865.316 701.558C870.017 703.723 871.836 705.391 874.395 709.868C875.775 714.276 875.775 714.276 876.937 724.682C867.734 724.682 858.53 724.682 849.047 724.682C851.688 733.112 851.688 733.112 854.422 736.316C858.791 738.032 863.139 737.394 867.641 736.244C868.408 735.481 869.175 734.718 869.965 733.931C872.434 734.365 872.434 734.365 874.613 735.088C874.35 738.754 873.381 739.777 870.619 742.314C864.585 745.262 858.916 745.632 852.465 743.574C846.801 740.775 844.704 737.053 842.074 731.619C841.691 730.856 841.307 730.093 840.912 729.307C839.994 721.554 840.402 715.668 845.052 709.254C851.094 702.328 856.377 700.51 865.316 701.558Z" fill="#81A4B6"/>
<path d="M441.898 687.092C453.918 687.092 465.937 687.092 478.32 687.092C478.32 689.427 478.32 691.761 478.32 694.167C468.627 694.167 458.934 694.167 448.948 694.167C448.948 700.004 448.948 705.841 448.948 711.854C456.702 711.854 464.457 711.854 472.446 711.854C472.446 713.8 472.446 715.746 472.446 717.75C464.691 717.75 456.937 717.75 448.948 717.75C448.948 724.365 448.948 730.98 448.948 737.796C458.641 737.796 468.334 737.796 478.32 737.796C478.32 740.131 478.32 742.466 478.32 744.871C466.301 744.871 454.282 744.871 441.898 744.871C441.898 725.804 441.898 706.737 441.898 687.092Z" fill="#81A5BA"/>
<path d="M595.68 775.281C620.1 775.281 620.1 775.281 627.363 782.007C629.353 785.955 629.308 789.721 628.69 793.995C627.06 798.036 625.764 799.472 622.021 801.744C615.291 804.49 608.782 803.555 601.574 803.352C601.574 809.142 601.574 814.931 601.574 820.896C599.629 820.896 597.684 820.896 595.68 820.896C595.68 805.843 595.68 790.79 595.68 775.281Z" fill="#7EA2B5"/>
<path d="M220.485 786.832C226.49 789.951 230.106 793.221 232.255 799.561C232.982 806.593 231.964 810.278 228.002 816.151C225.509 819.093 223.465 820.308 219.612 820.82C209.642 821.028 209.642 821.028 205.038 817.86C200.474 811.129 199.415 805.289 200.477 797.247C204.69 788.81 210.883 785.147 220.485 786.832Z" fill="#83A5B4"/>
<path d="M730.479 702.297C732.742 702.297 735.005 702.297 737.336 702.297C737.347 703.194 737.358 704.091 737.369 705.016C737.43 709.084 737.526 713.151 737.622 717.218C737.638 718.63 737.655 720.042 737.671 721.497C737.708 722.855 737.745 724.213 737.783 725.611C737.819 727.487 737.819 727.487 737.855 729.4C738.624 733.496 739.801 734.945 743.051 737.406C748.113 737.221 751.062 736.23 755.624 733.895C756.001 723.468 756.379 713.04 756.767 702.297C759.03 702.297 761.293 702.297 763.625 702.297C763.625 716.2 763.625 730.103 763.625 744.428C760.985 744.428 758.344 744.428 755.624 744.428C755.247 743.655 754.87 742.883 754.481 742.087C753.75 742.473 753.02 742.859 752.267 743.257C747.581 744.824 743.357 745.325 738.479 744.428C734.651 741.425 732.25 738.458 730.479 733.895C730.219 730.463 730.219 730.463 730.255 726.526C730.263 725.115 730.27 723.705 730.278 722.251C730.306 720.05 730.306 720.05 730.336 717.803C730.346 716.317 730.356 714.831 730.367 713.3C730.394 709.632 730.431 705.965 730.479 702.297Z" fill="#7FA4B7"/>
<path d="M659.667 702.297C662.01 702.297 664.353 702.297 666.768 702.297C666.791 703.239 666.815 704.182 666.839 705.152C666.951 709.404 667.081 713.655 667.212 717.907C667.248 719.39 667.285 720.873 667.323 722.402C667.368 723.816 667.414 725.23 667.461 726.687C667.498 727.995 667.536 729.303 667.574 730.65C667.637 733.98 667.637 733.98 670.318 736.142C672.811 736.514 672.811 736.514 675.57 736.434C676.496 736.44 677.422 736.446 678.376 736.452C681.313 736.296 681.313 736.296 684.52 733.808C685.125 730.531 685.125 730.531 685.126 726.687C685.168 725.273 685.21 723.859 685.253 722.402C685.28 720.918 685.306 719.435 685.334 717.907C685.374 716.414 685.415 714.922 685.456 713.384C685.554 709.689 685.636 705.993 685.704 702.297C688.047 702.297 690.39 702.297 692.805 702.297C692.805 715.777 692.805 729.256 692.805 743.145C690.852 743.145 688.899 743.145 686.887 743.145C686.887 741.989 686.887 740.834 686.887 739.644C685.96 740.414 685.032 741.184 684.076 741.978C679.035 745.284 673.799 745.275 667.951 744.312C663.652 741.839 661.463 739.501 659.667 734.975C659.398 731.445 659.398 731.445 659.436 727.371C659.443 725.912 659.451 724.452 659.459 722.949C659.479 721.429 659.498 719.91 659.519 718.344C659.53 716.807 659.54 715.269 659.551 713.685C659.579 709.889 659.618 706.093 659.667 702.297Z" fill="#79A1B5"/>
<path d="M184.443 774.74C189.344 776.284 191.552 778.073 194.164 782.431C196.051 786.573 196.051 786.573 196.051 790.123C193.752 790.123 191.454 790.123 189.086 790.123C188.799 789 188.511 787.877 188.215 786.721C187.116 783.025 187.116 783.025 184.733 781.396C181.233 780.405 178.779 780.129 175.156 780.656C172.17 783.227 169.944 785.366 168.191 788.939C167.985 792.016 167.869 795.031 167.829 798.11C167.795 798.943 167.761 799.776 167.727 800.634C167.655 806.67 168.696 810.344 172.835 814.972C175.692 815.953 175.692 815.953 178.711 815.637C179.706 815.615 180.701 815.592 181.727 815.568C184.89 814.874 185.971 814.007 187.925 811.422C188.754 808.933 188.754 808.933 189.086 806.689C191.001 806.689 192.917 806.689 194.89 806.689C194.579 811.234 193.967 813.476 191.19 817.117C187.619 819.948 185.419 820.571 180.96 820.888C180.96 821.669 180.96 822.45 180.96 823.255C182.684 823.841 182.684 823.841 184.443 824.438C184.805 827.101 184.805 827.101 184.443 830.355C181.758 833.091 181.758 833.091 178.639 835.088C177.489 835.088 176.34 835.088 175.156 835.088C175.539 833.526 175.922 831.964 176.317 830.355C177.083 830.355 177.849 830.355 178.639 830.355C178.639 828.793 178.639 827.231 178.639 825.622C177.489 825.622 176.34 825.622 175.156 825.622C175.156 824.45 175.156 823.279 175.156 822.072C174.127 821.828 173.097 821.584 172.037 821.332C165.964 818.763 163.321 814.872 160.864 808.907C159.288 799.857 158.444 790.798 163.262 782.658C169.229 774.402 174.911 773.451 184.443 774.74Z" fill="#84A5B9"/>
<path d="M763.242 786.83C767.935 788.644 769.766 789.599 772.576 793.788C772.948 796.632 772.948 796.632 773.059 799.963C773.104 801.155 773.149 802.347 773.195 803.575C773.231 804.819 773.267 806.062 773.305 807.342C773.35 808.599 773.395 809.855 773.441 811.15C773.551 814.253 773.651 817.357 773.742 820.461C771.432 820.461 769.122 820.461 766.742 820.461C766.357 819.696 765.972 818.93 765.576 818.142C764.348 819.003 764.348 819.003 763.096 819.881C759.166 821.92 757.116 822.255 752.742 821.621C749.592 819.534 747.443 818.045 745.742 814.663C745.305 810.749 745.305 810.749 745.742 806.545C749.155 803.153 752.061 800.815 756.944 800.633C758.69 800.653 758.69 800.653 760.471 800.674C762.226 800.69 762.226 800.69 764.017 800.706C764.916 800.719 765.816 800.733 766.742 800.746C765.972 798.45 765.202 796.154 764.409 793.788C760.495 792.901 760.495 792.901 756.242 792.629C754.322 794.247 754.322 794.247 752.742 796.108C749.607 796.325 749.607 796.325 746.909 796.108C747.275 792.708 748.121 791.42 750.482 788.86C754.813 786.294 758.374 786.035 763.242 786.83Z" fill="#82A4B4"/>
<path d="M647.171 687.092C649.877 687.092 652.583 687.092 655.371 687.092C654.15 691.964 652.132 695.826 649.509 700.041C640.304 714.92 635.382 726.193 636.628 743.857C634.308 743.857 631.989 743.857 629.599 743.857C629.737 742.046 629.737 742.046 629.878 740.199C630.412 723.292 623.398 711.275 614.844 697.126C613.229 694.242 612 691.376 610.855 688.274C613.562 688.274 616.268 688.274 619.056 688.274C620.992 691.916 622.917 695.564 624.84 699.214C625.389 700.246 625.938 701.278 626.503 702.341C627.028 703.34 627.553 704.338 628.093 705.367C628.82 706.742 628.82 706.742 629.562 708.144C630.699 710.591 631.398 712.836 631.942 715.475C632.715 715.475 633.488 715.475 634.285 715.475C634.423 714.612 634.561 713.75 634.703 712.861C635.462 709.534 636.537 707.067 638.133 704.069C638.658 703.074 639.183 702.079 639.723 701.055C640.272 700.032 640.821 699.01 641.387 697.957C641.94 696.912 642.494 695.867 643.064 694.79C644.426 692.22 645.795 689.655 647.171 687.092Z" fill="#7A9FB5"/>
<path d="M507.559 702.99C511.755 705.095 514.113 706.557 515.667 711.055C515.667 712.196 515.667 713.337 515.667 714.512C513.374 714.512 511.08 714.512 508.717 714.512C508.717 713.371 508.717 712.231 508.717 711.055C504.698 709.228 501.565 708.171 497.133 708.751C494.862 710.049 494.862 710.049 493.658 712.208C493.642 714.565 493.642 714.565 494.816 716.816C497.562 718.268 497.562 718.268 500.898 719.193C506.48 720.941 511.198 722.883 515.523 726.898C517.497 730.826 516.789 733.39 515.667 737.555C512.334 741.785 508.788 744.16 503.405 744.856C496.496 744.952 492.031 744.747 486.707 739.86C484.643 736.78 484.391 735.553 484.391 731.795C486.684 731.795 488.978 731.795 491.341 731.795C491.676 732.531 492.01 733.268 492.355 734.027C493.459 736.578 493.459 736.578 495.975 737.555C500.23 737.709 503.503 737.748 507.559 736.403C507.559 734.122 507.559 731.841 507.559 729.49C505.516 728.742 505.516 728.742 503.432 727.978C502.166 727.499 502.166 727.499 500.875 727.01C498.572 726.14 496.26 725.293 493.947 724.449C489.741 722.358 487.802 720.924 485.549 716.816C485.363 711.645 486.166 709.435 489.386 705.367C494.618 701.54 501.402 702.001 507.559 702.99Z" fill="#7DA2B5"/>
<path d="M525.75 786.681C529.952 788.559 532.906 790.635 534.977 794.801C534.977 798.246 534.977 801.691 534.977 805.24C527.745 805.24 520.514 805.24 513.064 805.24C514.832 810.247 514.832 810.247 517.677 814.52C523.511 814.814 527.285 814.59 532.67 812.2C533.431 812.583 534.192 812.966 534.977 813.36C533.356 817.299 531.865 819.516 528.057 821.48C522.623 822.344 518.732 822.01 513.785 819.523C509.697 815.901 507.604 812.925 506.716 807.461C506.512 795.893 506.512 795.893 510.613 791.031C515.221 786.508 519.408 785.994 525.75 786.681Z" fill="#799DAE"/>
<path d="M883.008 702.297C892.928 702.297 902.849 702.297 913.07 702.297C911.971 710.167 911.639 711.753 907.145 717.449C902.334 723.692 897.833 730.054 893.414 736.593C900.664 736.983 907.913 737.373 915.383 737.775C915.383 740.117 915.383 742.459 915.383 744.871C904.699 744.871 894.015 744.871 883.008 744.871C883.008 736.892 883.008 736.892 886.973 731.816C887.798 730.74 888.622 729.664 889.471 728.555C890.343 727.451 891.215 726.347 892.113 725.21C893.824 723.004 895.531 720.796 897.235 718.586C897.998 717.615 898.761 716.645 899.547 715.645C901.776 712.734 901.776 712.734 903.82 708.21C896.952 708.21 890.084 708.21 883.008 708.21C883.008 706.259 883.008 704.307 883.008 702.297Z" fill="#7AA1B4"/>
<path d="M232.814 707.757C236.414 709.037 238.038 710.926 239.999 714.146C241.94 719.248 241.864 724.224 240.987 729.56C239.092 733.414 237.54 735.585 234.208 738.225C230.243 739.243 227.428 738.768 223.493 737.715C218.915 733.142 217.483 729.147 217.297 722.788C217.346 717.175 218.552 714.064 222.327 709.754C226.217 707.164 228.243 707.007 232.814 707.757Z" fill="#F8FAFA"/>
<path d="M273.375 685.096C274.427 685.106 275.48 685.117 276.564 685.128C277.775 685.148 277.775 685.148 279.012 685.169C279.012 687.1 279.012 689.032 279.012 691.022C277.724 691.167 276.436 691.312 275.109 691.461C270.882 691.779 270.882 691.779 268.605 694.534C268.142 697.253 267.75 699.986 267.449 702.728C270.502 702.728 273.554 702.728 276.699 702.728C276.699 704.274 276.699 705.819 276.699 707.411C274.028 707.411 271.357 707.411 268.605 707.411C268.605 719.773 268.605 732.135 268.605 744.871C265.935 744.871 263.264 744.871 260.512 744.871C260.512 732.509 260.512 720.147 260.512 707.411C258.604 707.411 256.696 707.411 254.73 707.411C254.73 705.866 254.73 704.32 254.73 702.728C256.638 702.728 258.546 702.728 260.512 702.728C260.369 700.628 260.369 700.628 260.223 698.485C260.204 693.267 261.823 690.385 265.137 686.34C268.056 684.862 270.122 685.054 273.375 685.096Z" fill="#82A4B8"/>
<path d="M683.699 772.24C685.953 772.24 688.206 772.24 690.528 772.24C690.904 780.802 691.28 789.364 691.667 798.185C693.145 796.677 694.624 795.169 696.148 793.615C696.98 792.767 697.812 791.919 698.669 791.045C700.836 788.904 700.836 788.904 701.91 786.392C704.164 786.392 706.417 786.392 708.739 786.392C707.095 790.211 705.031 793.02 702.337 796.122C701.618 796.955 700.899 797.788 700.158 798.646C699.61 799.272 699.061 799.899 698.496 800.544C700.397 805.015 703.173 808.716 706.036 812.558C711.016 819.261 711.016 819.261 711.016 820.592C707.948 820.998 707.948 820.998 704.187 820.592C701.279 817.755 701.279 817.755 698.638 814.106C697.749 812.902 696.86 811.698 695.944 810.458C695.283 809.521 694.623 808.585 693.943 807.62C692.816 808.009 691.689 808.398 690.528 808.799C689.965 814.637 689.965 814.637 689.39 820.592C687.512 820.592 685.634 820.592 683.699 820.592C683.699 804.636 683.699 788.68 683.699 772.24Z" fill="#89A9B9"/>
<path d="M416.605 776.295C426.288 776.295 435.97 776.295 445.945 776.295C445.945 777.844 445.945 779.394 445.945 780.99C438.2 780.99 430.454 780.99 422.473 780.99C422.473 785.638 422.473 790.286 422.473 795.075C429.057 795.075 435.641 795.075 442.425 795.075C442.425 796.624 442.425 798.173 442.425 799.769C435.841 799.769 429.257 799.769 422.473 799.769C422.473 805.192 422.473 810.615 422.473 816.202C430.219 816.202 437.965 816.202 445.945 816.202C445.945 817.751 445.945 819.3 445.945 820.896C436.263 820.896 426.581 820.896 416.605 820.896C416.605 806.178 416.605 791.459 416.605 776.295Z" fill="#80A4B6"/>
<path d="M308.352 772.24C310.239 772.24 312.126 772.24 314.07 772.24C314.447 781.191 314.825 790.142 315.214 799.365C317.549 796.446 317.549 796.446 319.931 793.468C322.585 790.151 322.585 790.151 325.507 787.571C329.286 787.203 329.286 787.203 332.369 787.571C328.938 792.289 325.507 797.006 322.076 801.723C322.457 802.253 322.838 802.783 323.231 803.328C324.945 805.715 326.656 808.105 328.366 810.494C328.966 811.328 329.566 812.162 330.184 813.021C330.752 813.816 331.319 814.61 331.904 815.428C332.431 816.163 332.958 816.898 333.501 817.655C334.656 819.413 334.656 819.413 334.656 820.592C331.525 820.998 331.525 820.998 327.794 820.592C325.243 817.755 325.243 817.755 323.005 814.106C320.853 810.531 320.853 810.531 318.645 807.62C317.512 807.62 316.38 807.62 315.214 807.62C314.836 811.901 314.459 816.182 314.07 820.592C312.183 820.592 310.296 820.592 308.352 820.592C308.352 804.636 308.352 788.68 308.352 772.24Z" fill="#7FA2B4"/>
<path d="M144.453 694.413C148.968 694.341 148.968 694.341 153.575 694.267C154.515 694.246 155.455 694.225 156.424 694.203C164.407 694.141 164.407 694.141 167.993 696.743C170.871 701.017 171.197 704.59 170.347 709.56C168.146 712.393 166.485 713.802 163.285 715.386C160.084 715.47 156.921 715.494 153.722 715.459C150.663 715.435 147.605 715.411 144.453 715.386C144.453 708.465 144.453 701.544 144.453 694.413Z" fill="#FAFAFB"/>
<path d="M713.039 786.469C714.909 786.469 716.778 786.469 718.705 786.469C721.929 793.882 724.921 801.369 727.77 808.948C727.97 808.309 728.17 807.67 728.376 807.012C729.28 804.131 730.189 801.253 731.098 798.374C731.413 797.368 731.728 796.362 732.052 795.326C732.355 794.369 732.658 793.412 732.971 792.426C733.249 791.54 733.528 790.654 733.816 789.741C734.568 787.652 734.568 787.652 735.702 786.469C737.59 786.421 739.479 786.418 741.367 786.469C741.066 787.394 741.066 787.394 740.758 788.338C739.131 793.376 737.571 798.427 736.1 803.518C735.779 804.615 735.457 805.712 735.126 806.843C734.471 809.086 733.824 811.332 733.187 813.581C730.735 821.87 728.109 830.008 720.971 834.977C717.359 835.125 717.359 835.125 714.172 834.977C714.172 833.025 714.172 831.073 714.172 829.061C715.247 828.964 716.322 828.866 717.43 828.766C720.967 828.253 720.967 828.253 722.6 825.956C724.46 817.753 720.37 809.606 717.501 802.145C716.656 799.935 715.816 797.723 714.982 795.508C714.61 794.539 714.237 793.569 713.853 792.57C713.039 790.018 713.039 790.018 713.039 786.469Z" fill="#83A4B4"/>
<path d="M272.043 786.432C274.298 786.432 276.553 786.432 278.876 786.432C278.904 787.242 278.933 788.052 278.962 788.887C279.094 792.535 279.234 796.184 279.374 799.832C279.419 801.108 279.463 802.383 279.51 803.697C279.581 805.515 279.581 805.515 279.654 807.37C279.696 808.493 279.738 809.616 279.781 810.772C279.739 813.346 279.739 813.346 281.153 814.551C285.091 814.844 285.091 814.844 289.124 814.551C291.949 811.645 291.732 810.612 291.873 806.597C291.917 805.494 291.961 804.391 292.007 803.256C292.042 802.102 292.077 800.948 292.114 799.759C292.158 798.596 292.202 797.433 292.247 796.235C292.355 793.358 292.452 790.481 292.541 787.603C294.42 787.603 296.299 787.603 298.234 787.603C298.234 798.429 298.234 809.255 298.234 820.409C295.198 820.409 292.161 820.409 289.124 820.409C288.373 820.796 287.621 821.182 286.847 821.581C283.075 822.02 283.075 822.02 278.876 821.581C275.278 818.603 273.506 816.723 272.043 812.208C271.95 810.216 271.921 808.22 271.932 806.226C271.936 805.074 271.939 803.923 271.943 802.736C271.953 801.536 271.962 800.336 271.972 799.1C271.977 797.886 271.982 796.673 271.988 795.423C272.001 792.426 272.02 789.429 272.043 786.432Z" fill="#89AAB9"/>
<path d="M256.734 786.852C259.862 788.311 262.366 790.241 264.812 792.734C264.858 794.694 264.861 796.656 264.812 798.617C262.143 798.984 262.143 798.984 259.042 798.617C258.494 797.646 257.947 796.675 257.383 795.675C256.788 794.705 256.193 793.734 255.58 792.734C252.118 791.852 252.118 791.852 248.656 792.734C246.129 795.34 245.259 796.905 244.815 800.565C244.845 801.669 244.875 802.773 244.906 803.911C244.923 805.015 244.941 806.119 244.96 807.256C245.167 810.019 245.588 812.437 246.348 815.087C248.03 815.183 249.713 815.251 251.397 815.308C252.802 815.369 252.802 815.369 254.237 815.432C255.061 815.318 255.885 815.205 256.734 815.087C257.495 813.923 258.257 812.758 259.042 811.558C262.071 811.337 262.071 811.337 264.812 811.558C264.43 815.16 264.119 816.97 261.566 819.573C259.042 820.97 259.042 820.97 254.426 820.97C254.997 821.431 255.568 821.892 256.157 822.367C257.888 824.499 257.888 824.499 258.321 827.441C257.888 830.382 257.888 830.382 256.445 832.441C254.231 834.053 252.475 834.62 249.81 835.088C250.474 832.281 251.22 829.597 252.118 826.852C250.975 826.464 249.833 826.076 248.656 825.676C248.085 823.929 248.085 823.929 247.502 822.146C245.657 820.279 245.657 820.279 243.463 818.543C239.539 815.322 239.539 815.322 238.27 812.734C237.062 796.987 237.062 796.987 240.362 791.852C245.514 786.448 249.647 785.805 256.734 786.852Z" fill="#87A7B7"/>
<path d="M651.774 786.923C655.856 788.882 655.856 788.882 658.771 791.567C659.792 794.761 659.792 794.761 659.938 797.373C657.314 797.664 657.314 797.664 654.106 797.373C653.385 796.607 652.663 795.841 651.92 795.051C649.475 792.268 649.475 792.268 645.068 792.438C643.191 792.582 643.191 792.582 641.277 792.729C641.277 794.645 641.277 796.56 641.277 798.535C642.233 798.816 643.19 799.097 644.175 799.387C645.432 799.776 646.688 800.166 647.983 800.567C649.228 800.944 650.473 801.321 651.755 801.71C655.48 803.266 657.419 804.709 659.938 807.824C660.594 811.235 660.594 811.235 659.938 814.791C656.963 818.393 655.066 820.279 650.607 821.759C644.763 822.19 641.287 821.895 636.612 818.275C633.113 814.311 633.113 814.311 633.113 811.308C635.423 811.308 637.732 811.308 640.111 811.308C640.111 812.457 640.111 813.607 640.111 814.791C643.96 814.791 647.808 814.791 651.774 814.791C652.159 813.259 652.543 811.726 652.94 810.147C649.802 808.063 647.797 807.236 644.266 806.227C639.905 804.797 636.77 803.753 634.28 799.696C634.193 794.884 634.699 792.474 637.778 788.737C642.575 786.249 646.471 786.004 651.774 786.923Z" fill="#85A6B6"/>
<path d="M857.19 786.985C861.28 788.939 861.28 788.939 864.202 791.616C865.224 794.8 865.224 794.8 865.37 797.405C862.741 797.694 862.741 797.694 859.527 797.405C858.804 796.617 858.081 795.829 857.336 795.017C856.517 794.277 855.697 793.537 854.853 792.774C850.536 792.943 850.536 792.943 846.673 793.932C847.058 795.842 847.444 797.752 847.841 799.72C848.813 800.014 849.784 800.308 850.785 800.611C852.055 801.01 853.325 801.408 854.634 801.819C856.525 802.403 856.525 802.403 858.455 802.999C861.685 804.28 863.323 805.09 865.37 807.824C865.955 811.153 865.955 811.153 865.37 814.77C862.831 817.749 860.719 819.968 857.19 821.717C850.949 822.122 847.064 822.259 841.998 818.244C838.492 814.291 838.492 814.291 838.492 811.297C841.268 811.08 841.268 811.08 844.335 811.297C845.107 812.443 845.878 813.59 846.673 814.77C849.252 815.191 849.252 815.191 852.077 814.987C853.032 814.956 853.987 814.925 854.972 814.893C856.07 814.832 856.07 814.832 857.19 814.77C857.576 813.242 857.961 811.714 858.359 810.14C856.262 809.387 856.262 809.387 854.122 808.62C843.473 804.654 843.473 804.654 839.661 800.878C839.076 797.043 839.076 797.043 839.661 792.774C844.663 786.802 849.52 785.52 857.19 786.985Z" fill="#86A7B7"/>
<path d="M542.059 786.687C544 786.687 545.942 786.687 547.943 786.687C548.332 787.855 548.72 789.023 549.12 790.226C549.727 789.642 550.334 789.058 550.959 788.457C554.861 786.05 557.555 786.284 562.066 786.687C566.044 788.088 566.694 788.927 569.128 792.586C569.395 795.586 569.395 795.586 569.357 799.124C569.35 800.39 569.342 801.656 569.334 802.96C569.315 804.281 569.295 805.602 569.275 806.962C569.264 808.297 569.253 809.631 569.243 811.006C569.215 814.303 569.176 817.6 569.128 820.896C567.186 820.896 565.244 820.896 563.243 820.896C563.226 820.123 563.209 819.349 563.191 818.552C563.104 815.056 562.99 811.563 562.875 808.068C562.849 806.85 562.822 805.632 562.795 804.377C562.753 803.214 562.711 802.051 562.668 800.852C562.638 799.777 562.607 798.702 562.575 797.595C562.407 796.72 562.239 795.846 562.066 794.945C558.262 792.403 557.062 792.033 552.651 792.586C550.073 794.517 549.219 795.602 548.611 798.8C548.58 799.819 548.55 800.839 548.518 801.889C548.455 803.548 548.455 803.548 548.391 805.241C548.365 806.393 548.338 807.545 548.311 808.732C548.271 809.897 548.231 811.063 548.189 812.264C548.092 815.141 548.011 818.018 547.943 820.896C546.001 820.896 544.059 820.896 542.059 820.896C542.059 809.607 542.059 798.318 542.059 786.687Z" fill="#7FA2B2"/>
<path d="M702.922 702.415C705.279 702.415 707.635 702.415 710.063 702.415C710.063 703.582 710.063 704.75 710.063 705.953C710.849 705.953 711.635 705.953 712.444 705.953C712.444 705.175 712.444 704.396 712.444 703.594C715.963 701.851 719.279 702.344 723.156 702.415C723.156 704.361 723.156 706.307 723.156 708.312C721.168 708.859 721.168 708.859 719.139 709.417C715.069 710.462 715.069 710.462 712.444 711.85C712.051 722.747 711.658 733.644 711.254 744.871C708.504 744.871 705.755 744.871 702.922 744.871C702.922 730.861 702.922 716.85 702.922 702.415Z" fill="#85A9BA"/>
<path d="M782.468 778.322C784.722 778.322 786.975 778.322 789.297 778.322C789.297 781.027 789.297 783.731 789.297 786.517C791.175 786.517 793.053 786.517 794.988 786.517C794.988 788.449 794.988 790.381 794.988 792.371C793.11 792.371 791.232 792.371 789.297 792.371C789.673 799.711 790.049 807.051 790.436 814.614C791.938 815.001 793.44 815.387 794.988 815.785C794.988 817.33 794.988 818.876 794.988 820.468C788.208 821.039 788.208 821.039 785.883 820.468C781.369 815.41 782.073 809.57 782.255 803.127C782.27 802.092 782.286 801.058 782.302 799.992C782.342 797.451 782.403 794.911 782.468 792.371C780.59 792.371 778.712 792.371 776.777 792.371C776.777 790.439 776.777 788.507 776.777 786.517C778.655 786.517 780.533 786.517 782.468 786.517C782.468 783.813 782.468 781.109 782.468 778.322Z" fill="#8CACBB"/>
<path d="M546.105 701.52C546.105 703.849 546.105 706.177 546.105 708.576C544.804 708.698 543.503 708.819 542.163 708.944C537.213 709.788 537.213 709.788 534.203 713.281C533.601 716.577 533.601 716.577 533.594 720.314C533.552 721.682 533.509 723.05 533.466 724.46C533.439 725.889 533.412 727.317 533.385 728.789C533.344 730.232 533.303 731.674 533.261 733.161C533.163 736.726 533.081 740.291 533.013 743.857C530.656 743.857 528.299 743.857 525.871 743.857C525.871 730.274 525.871 716.691 525.871 702.696C528.228 702.696 530.585 702.696 533.013 702.696C533.405 703.472 533.798 704.249 534.203 705.048C534.62 704.466 535.038 703.884 535.468 703.284C538.897 700.661 541.904 701.285 546.105 701.52Z" fill="#7BA0B2"/>
<path d="M206.168 701.367C206.168 703.704 206.168 706.041 206.168 708.448C204.932 708.57 203.696 708.692 202.422 708.817C197.72 709.664 197.72 709.664 194.861 713.17C194.288 716.478 194.288 716.478 194.282 720.228C194.242 721.602 194.202 722.975 194.16 724.389C194.135 725.823 194.109 727.257 194.083 728.735C194.045 730.183 194.006 731.63 193.966 733.122C193.873 736.7 193.795 740.278 193.73 743.857C191.491 743.857 189.252 743.857 186.945 743.857C186.945 730.225 186.945 716.593 186.945 702.547C189.184 702.547 191.423 702.547 193.73 702.547C193.73 703.715 193.73 704.884 193.73 706.088C194.476 706.088 195.222 706.088 195.991 706.088C196.364 704.919 196.738 703.751 197.122 702.547C200.185 700.948 202.786 701.29 206.168 701.367Z" fill="#7DA1B5"/>
<path d="M394.348 701.441C394.348 703.774 394.348 706.107 394.348 708.511C392.396 708.766 392.396 708.766 390.405 709.026C386.098 709.551 386.098 709.551 382.445 710.867C382.052 721.754 381.66 732.641 381.255 743.857C378.898 743.857 376.541 743.857 374.113 743.857C374.113 730.249 374.113 716.64 374.113 702.619C376.47 702.619 378.827 702.619 381.255 702.619C381.648 703.397 382.04 704.175 382.445 704.976C383.083 704.393 383.722 703.809 384.379 703.208C387.913 700.999 390.245 701.164 394.348 701.441Z" fill="#7BA1B6"/>
<path d="M220.344 792.563C223.034 794.138 223.034 794.138 224.874 797.145C225.754 803.04 225.717 808.008 223.105 813.4C219.347 816.226 216.995 816.066 212.416 815.476C209.018 813.185 209.018 813.185 207.886 809.748C206.702 797.584 206.702 797.584 210.292 792.777C214.343 791.085 216.206 791.137 220.344 792.563Z" fill="#F9F9F8"/>
<path d="M489.529 791.851C491.456 793.012 491.456 793.012 493.019 795.243C493.365 798.388 493.507 801.222 493.455 804.359C493.469 805.188 493.482 806.016 493.496 806.87C493.482 809.275 493.482 809.275 493.019 813.334C488.721 816.12 486.467 816.037 481.387 815.596C478.344 813.525 477.932 812.306 476.734 808.811C476.029 803.033 475.771 798.881 479.206 793.971C483.109 791.496 484.96 791.078 489.529 791.851Z" fill="#FAFBFA"/>
<path d="M601.75 780.698C604.142 780.624 606.534 780.551 608.999 780.475C611.018 780.413 611.018 780.413 613.077 780.35C617.133 780.726 618.722 781.216 621.468 784.26C622.271 787.474 622.032 790.505 621.468 793.76C619.677 796.343 618.409 797.107 615.668 798.51C613.302 798.594 610.932 798.61 608.564 798.584C606.315 798.56 604.067 798.535 601.75 798.51C601.75 792.632 601.75 786.754 601.75 780.698Z" fill="#F9F9FA"/>
<path d="M464.594 786.432C466.381 786.468 466.381 786.468 468.203 786.506C468.203 788.462 468.203 790.419 468.203 792.435C464.554 793.218 460.906 794.001 457.146 794.807C457.146 803.417 457.146 812.026 457.146 820.896C455.119 820.896 453.092 820.896 451.004 820.896C451.004 809.939 451.004 798.981 451.004 787.692C453.87 787.692 456.737 787.692 459.604 787.692C460.832 786.506 460.832 786.506 464.594 786.432Z" fill="#7A9FB1"/>
<path d="M819.27 786.59C819.27 788.542 819.27 790.494 819.27 792.505C816.026 793.286 812.783 794.067 809.441 794.871C809.036 803.459 808.631 812.048 808.213 820.896C806.186 820.896 804.159 820.896 802.07 820.896C802.07 809.966 802.07 799.035 802.07 787.773C803.692 787.773 805.314 787.773 806.984 787.773C806.984 788.554 806.984 789.335 806.984 790.139C807.643 789.554 808.302 788.968 808.981 788.365C812.628 786.147 815.035 786.312 819.27 786.59Z" fill="#7EA2B2"/>
<path d="M371.685 798.596C376.347 800.157 377.22 802.721 379.829 806.781C380.597 807.167 381.365 807.553 382.156 807.951C382.924 805.635 383.692 803.32 384.483 800.934C386.019 800.934 387.555 800.934 389.137 800.934C388.929 801.907 388.72 802.879 388.506 803.881C388.258 805.152 388.011 806.422 387.756 807.732C387.499 808.993 387.243 810.255 386.979 811.555C386.429 814.971 386.429 814.971 388.496 817.027C389.092 817.505 389.687 817.983 390.301 818.475C390.301 819.247 390.301 820.019 390.301 820.814C386.155 820.909 382.668 820.65 378.666 819.645C377.898 820.031 377.13 820.417 376.339 820.814C373.23 820.971 370.146 820.865 367.031 820.814C367.031 820.428 367.031 820.042 367.031 819.645C368.135 819.355 369.239 819.066 370.376 818.768C374.113 817.673 374.113 817.673 375.612 814.821C375.852 814.097 376.092 813.374 376.339 812.628C375.906 812.105 375.472 811.582 375.026 811.043C370.474 805.197 370.474 805.197 370.74 801.008C371.052 800.212 371.364 799.416 371.685 798.596Z" fill="#7CA0B1"/>
<path d="M372.442 774.344C376.407 775.158 378.214 776.401 380.736 779.46C381.476 782.89 381.206 785.151 380.736 788.741C378.943 791.061 378.943 791.061 377.15 792.221C376.361 791.838 375.572 791.455 374.759 791.061C374.808 789.769 374.857 788.477 374.908 787.146C375.25 782.89 375.25 782.89 372.368 780.62C370.395 781.003 368.423 781.386 366.39 781.78C366.39 785.991 366.39 790.202 366.39 794.541C361.608 793.381 361.608 793.381 360.114 791.496C358.843 787.591 358.701 784.696 359.217 780.62C362.893 775.381 366.126 773.891 372.442 774.344Z" fill="#7EA1B3"/>
<path d="M576.077 723.855C576.775 732.082 576.775 732.082 573.767 735.778C569.079 738.082 566.271 737.985 561.062 737.481C558.751 735.21 558.751 735.21 558.246 731.945C558.751 728.397 558.751 728.397 560.917 725.7C565.991 723.106 570.47 723.469 576.077 723.855Z" fill="#F7F9F9"/>
<path d="M509.31 799.609C509.695 799.609 510.08 799.609 510.477 799.609C510.477 801.509 510.477 803.409 510.477 805.366C511.247 805.366 512.017 805.366 512.81 805.366C513.363 806.672 513.917 807.978 514.487 809.323C515.886 813.145 515.886 813.145 517.477 814.576C523.379 814.867 527.196 814.645 532.643 812.273C533.413 812.653 534.183 813.033 534.977 813.424C533.337 817.333 531.829 819.534 527.977 821.483C522.48 822.341 518.543 822.01 513.539 819.54C509.787 816.278 507.31 813.832 506.69 808.788C506.612 806.301 506.612 806.301 506.977 801.912C507.747 801.152 508.517 800.392 509.31 799.609Z" fill="#7EA1B0"/>
<path d="M824.328 786.432C826.331 786.432 828.335 786.432 830.398 786.432C830.398 797.805 830.398 809.178 830.398 820.896C828.395 820.896 826.392 820.896 824.328 820.896C824.328 809.523 824.328 798.15 824.328 786.432Z" fill="#80A3B2"/>
<path d="M668.523 787.445C670.527 787.445 672.53 787.445 674.594 787.445C674.594 798.484 674.594 809.523 674.594 820.896C672.591 820.896 670.587 820.896 668.523 820.896C668.523 809.858 668.523 798.819 668.523 787.445Z" fill="#7FA3B3"/>
<path d="M873.902 787.445C875.572 787.445 877.241 787.445 878.961 787.445C878.961 798.484 878.961 809.523 878.961 820.896C877.292 820.896 875.622 820.896 873.902 820.896C873.902 809.858 873.902 798.819 873.902 787.445Z" fill="#7FA0B0"/>
<path d="M293.275 787.445C294.911 787.445 296.548 787.445 298.234 787.445C298.234 798.484 298.234 809.523 298.234 820.896C296.925 820.896 295.616 820.896 294.267 820.896C293.216 817.1 293.161 814.414 293.178 810.429C293.181 809.093 293.184 807.757 293.188 806.381C293.196 804.986 293.204 803.592 293.213 802.155C293.22 800.042 293.22 800.042 293.226 797.887C293.238 794.406 293.254 790.926 293.275 787.445Z" fill="#7BA0B1"/>
<path d="M860.661 707.365C864.569 708.71 866.405 709.831 868.844 712.975C868.844 714.803 868.844 716.632 868.844 718.516C862.166 718.516 855.489 718.516 848.609 718.516C849.8 712.975 849.8 712.975 852.998 709.789C856.941 707.434 856.941 707.434 860.661 707.365Z" fill="#F8F9FA"/>
<path d="M368.837 799.609C370.516 801.737 372.106 803.939 373.644 806.175C374.911 808.003 374.911 808.003 376.203 809.869C376.849 810.817 377.495 811.764 378.16 812.741C376.316 814.967 375.23 816.193 372.406 816.84C366.024 816.853 366.024 816.853 362.938 814.457C361.371 810.284 361.946 807.476 363.011 803.191C365.604 799.609 365.604 799.609 368.837 799.609Z" fill="#F8F9F9"/>
<path d="M892.258 737.775C899.889 737.775 907.52 737.775 915.383 737.775C915.383 740.117 915.383 742.459 915.383 744.871C904.699 744.871 894.015 744.871 883.008 744.871C883.008 744.481 883.008 744.091 883.008 743.688C888.159 743.103 888.159 743.103 893.414 742.506C893.032 740.945 892.651 739.384 892.258 737.775Z" fill="#8EB0C0"/>
<path d="M220.777 786.572C221.569 786.957 222.362 787.342 223.178 787.739C223.667 790.446 224.072 793.17 224.379 795.903C223.983 795.133 223.586 794.363 223.178 793.57C216.864 792.041 216.864 792.041 210.912 793.725C208.046 796.637 208.061 798.561 207.868 802.536C207.8 803.696 207.732 804.855 207.662 806.049C207.631 806.935 207.6 807.82 207.568 808.732C207.172 808.732 206.775 808.732 206.367 808.732C205.971 805.653 205.575 802.574 205.166 799.402C202.086 802.394 202.116 804.623 201.564 808.732C201.168 808.732 200.771 808.732 200.363 808.732C199.935 802.885 199.687 798.407 202.39 793.06C208.219 786.786 212.38 786.038 220.777 786.572Z" fill="#8DAAB9"/>
<path d="M822.351 701.04C825.247 702.503 827.715 704.175 830.398 706.104C829.64 707.775 828.881 709.446 828.099 711.168C826.581 711.168 825.064 711.168 823.5 711.168C823.121 710.75 822.742 710.332 822.351 709.902C820.012 709.649 820.012 709.649 817.321 709.664C815.956 709.637 815.956 709.637 814.563 709.61C811.673 709.718 811.673 709.718 808.555 712.434C807.416 711.18 806.278 709.927 805.105 708.636C814.62 699.493 814.62 699.493 822.351 701.04Z" fill="#87A8BA"/>
<path d="M748.986 805.691C749.763 806.068 750.541 806.445 751.342 806.834C752.203 809.477 752.994 812.144 753.699 814.831C757.976 814.831 762.253 814.831 766.66 814.831C764.304 819.4 764.304 819.4 762.242 820.828C758.724 821.965 756.213 822.123 752.521 821.685C749.339 819.629 747.169 818.162 745.451 814.831C745.404 812.165 745.4 809.499 745.451 806.834C746.617 806.457 747.784 806.08 748.986 805.691Z" fill="#7BA0B1"/>
<path d="M761.446 803.699C762.836 803.733 762.836 803.733 764.255 803.768C765.312 803.811 765.312 803.811 766.391 803.856C766.75 807.298 766.75 807.298 766.391 811.366C763.339 815.09 761.564 816.256 757.003 816.842C753.778 816.372 753.778 816.372 751.484 813.869C751.699 810.114 751.699 810.114 752.631 806.359C756.305 803.686 757.24 803.566 761.446 803.699Z" fill="#F3F6F6"/>
<path d="M939.664 717.502C946.341 717.502 953.019 717.502 959.898 717.502C959.898 719.844 959.898 722.185 959.898 724.598C953.221 724.598 946.544 724.598 939.664 724.598C939.664 722.256 939.664 719.914 939.664 717.502Z" fill="#88AABF"/>
<path d="M365.008 485.371C369.438 490.073 373.526 494.762 377.148 500.238C376.896 503.769 376.896 503.769 375.799 506.185C373.574 506.676 371.348 507.166 369.055 507.672C360.961 497.252 360.961 497.252 360.961 491.504C362.31 488.345 362.31 488.345 365.008 485.371Z" fill="#8BB263"/>
<path d="M694.054 800.623C698.298 802.392 700.389 804.919 703.171 808.641C703.93 809.644 704.69 810.647 705.472 811.68C707.505 814.578 709.295 817.523 711.016 820.631C707.933 820.985 707.933 820.985 704.231 820.631C701.59 818.181 701.59 818.181 699.284 814.967C698.506 813.916 697.727 812.864 696.925 811.781C695.185 808.862 695.185 808.862 695.185 805.331C694.066 804.942 692.946 804.554 691.793 804.154C692.539 802.989 693.286 801.824 694.054 800.623Z" fill="#79A0B2"/>
<path d="M527.461 792.549C529.918 796.009 529.918 796.009 529.918 800.623C524.242 800.623 518.566 800.623 512.719 800.623C513.947 794.856 513.947 794.856 515.944 792.693C520.179 790.81 523.003 791.464 527.461 792.549Z" fill="#F5F7F6"/>
<path d="M516.766 786.675C527.094 786.144 527.094 786.144 532.203 790.275C535.505 793.498 535.753 794.824 535.988 799.577C535.878 801.508 535.878 801.508 535.766 803.478C534.59 803.874 533.414 804.27 532.203 804.678C531.813 803.55 531.813 803.55 531.415 802.399C529.065 795.857 529.065 795.857 523.594 792.001C521.977 791.741 521.977 791.741 520.328 791.476C521.112 791.08 521.896 790.683 522.703 790.275C522.703 789.483 522.703 788.691 522.703 787.875C520.744 787.875 518.784 787.875 516.766 787.875C516.766 787.479 516.766 787.083 516.766 786.675Z" fill="#83A4B4"/>
<path d="M530.424 812.787C532.771 813.276 532.771 813.276 534.977 813.905C533.377 817.702 531.906 819.839 528.147 821.733C524.713 822.007 521.341 821.928 517.904 821.733C517.264 819.567 517.264 819.567 516.766 817.26C519.123 814.944 523.539 815.034 526.725 814.464C529.238 814.152 529.238 814.152 530.424 812.787Z" fill="#8AAAB7"/>
<path d="M367.52 779.336C371.102 779.731 372.542 780.082 375.125 782.93C375.057 785.85 375.057 785.85 374.039 788.92C371.255 791.091 371.255 791.091 368.607 792.514C366.417 789.797 365.403 788.233 365.008 784.577C365.347 781.732 365.347 781.732 367.52 779.336Z" fill="#F4F6F7"/>
<path d="M586.574 263.718C589.833 263.263 589.833 263.263 593.621 263.718C596.807 267.556 597.907 269.735 597.673 274.815C596.359 278.498 595.223 280.274 592.212 282.637C591.281 282.637 590.351 282.637 589.393 282.637C588.916 280.577 588.448 278.515 587.984 276.452C587.722 275.304 587.46 274.156 587.191 272.973C586.574 269.539 586.574 269.539 586.574 263.718Z" fill="#94BD70"/>
<path d="M360.485 807.719C362.072 810.062 363.659 812.405 365.246 814.749C368.146 815.175 368.146 815.175 371.346 814.968C372.429 814.936 373.512 814.905 374.628 814.872C375.46 814.831 376.292 814.791 377.148 814.749C376.559 815.691 375.97 816.633 375.363 817.604C373.477 820.195 373.477 820.195 373.578 821.778C366.793 822.313 363.404 821.314 358.104 817.092C357.712 816.319 357.319 815.545 356.914 814.749C358.092 814.749 359.271 814.749 360.485 814.749C360.485 812.429 360.485 810.109 360.485 807.719Z" fill="#8BACBB"/>
<path d="M492.195 813.801C492.958 814.177 493.722 814.553 494.508 814.941C494.508 817.575 494.508 820.21 494.508 822.924C493.745 821.795 492.982 820.666 492.195 819.503C491.575 819.879 490.955 820.255 490.316 820.643C486.885 822.068 484.324 822.1 480.633 821.783C479.87 821.031 479.107 820.278 478.32 819.503C479.083 819.503 479.847 819.503 480.633 819.503C481.014 817.997 481.396 816.492 481.789 814.941C483.077 814.965 484.365 814.988 485.691 815.012C489.689 815.242 489.689 815.242 492.195 813.801Z" fill="#96B1BD"/>
<path d="M429.806 816.842C431.5 816.851 433.194 816.866 434.888 816.888C435.751 816.894 436.614 816.9 437.504 816.906C439.643 816.921 441.783 816.945 443.922 816.97C443.922 818.265 443.922 819.561 443.922 820.896C434.907 820.896 425.893 820.896 416.605 820.896C416.605 820.465 416.605 820.033 416.605 819.588C417.897 819.399 419.188 819.21 420.518 819.015C425.051 818.192 425.21 816.985 429.806 816.842Z" fill="#6F99AF"/>
<path d="M188.856 806.705C190.897 806.705 192.937 806.705 195.039 806.705C194.696 811.476 194.059 813.592 190.866 817.337C187.62 819.883 187.62 819.883 183.91 819.883C184.267 819.265 184.624 818.647 184.992 818.011C186.739 814.344 187.774 810.599 188.856 806.705Z" fill="#7CA2B3"/>
<path d="M283.312 735.748C286.299 736.176 286.299 736.176 289.002 736.888C289.714 739.597 289.714 739.597 290.141 742.59C289.389 743.343 288.638 744.096 287.864 744.871C284.877 744.443 284.877 744.443 282.173 743.731C281.462 741.022 281.462 741.022 281.035 738.029C281.786 737.276 282.538 736.524 283.312 735.748Z" fill="#7CA8BE"/>
<path d="M206.02 798.596C206.402 803.183 206.785 807.771 207.18 812.497C204.883 813.644 204.883 813.644 202.539 814.814C201.092 810.48 200.821 806.607 201.379 802.071C203.881 798.596 203.881 798.596 206.02 798.596Z" fill="#7B9FAF"/>
<path d="M249.672 821.91C250.785 821.91 251.899 821.91 253.046 821.91C253.046 822.701 253.046 823.491 253.046 824.306C254.53 824.306 256.015 824.306 257.544 824.306C257.954 829.685 257.954 829.685 256.139 832.392C253.981 834.034 252.269 834.611 249.672 835.088C250.319 832.23 251.047 829.497 251.921 826.702C251.179 826.307 250.437 825.911 249.672 825.504C249.672 824.318 249.672 823.132 249.672 821.91Z" fill="#7B9CAD"/>
<path d="M402.694 735.748C404.601 736.071 406.5 736.445 408.385 736.876C408.82 738.745 409.198 740.627 409.523 742.518C408.385 743.646 408.385 743.646 405.611 743.857C402.694 743.646 402.694 743.646 400.418 741.389C401.028 737.4 401.028 737.4 402.694 735.748Z" fill="#79A4BC"/>
<path d="M179.719 822.924C181.341 823.325 182.963 823.727 184.634 824.14C185.018 826.877 185.018 826.877 184.634 830.222C181.793 833.035 181.793 833.035 178.491 835.088C177.274 835.088 176.058 835.088 174.805 835.088C175.265 832.731 175.265 832.731 176.033 830.222C176.844 829.821 177.655 829.419 178.491 829.006C179.296 825.932 179.296 825.932 179.719 822.924Z" fill="#80A2B4"/>
<path d="M737.496 688.105C739.424 688.478 741.345 688.911 743.251 689.409C743.971 691.852 743.971 691.852 744.402 694.622C743.643 695.482 742.883 696.342 742.1 697.229C739.078 696.74 739.078 696.74 736.345 695.925C736.295 693.754 736.298 691.58 736.345 689.409C736.724 688.979 737.104 688.549 737.496 688.105Z" fill="#7DA3B5"/>
<path d="M668.596 688.105C669.991 688.145 669.991 688.145 671.414 688.186C672.137 691.254 672.137 691.254 672.57 694.645C671.807 695.498 671.044 696.35 670.258 697.229C667.801 696.744 667.801 696.744 665.633 695.937C665.191 693.797 664.807 691.642 664.477 689.478C665.633 688.186 665.633 688.186 668.596 688.105Z" fill="#789FB5"/>
<path d="M207.686 809.746C208.671 810.934 208.671 810.934 209.677 812.147C212.667 814.946 214.394 815.484 218.309 815.941C214.768 818.419 214.768 818.419 211.227 818.419C211.227 819.236 211.227 820.054 211.227 820.896C207.495 819.199 206.514 818.432 204.145 814.702C205.313 813.066 206.482 811.431 207.686 809.746Z" fill="#8CACBB"/>
<path d="M752.482 688.105C754.434 688.536 756.385 688.966 758.395 689.409C759.135 691.852 759.135 691.852 759.578 694.622C758.798 695.482 758.017 696.342 757.213 697.229C754.7 696.74 754.7 696.74 752.482 695.925C751.152 691.038 751.152 691.038 752.482 688.105Z" fill="#7FA2B7"/>
<path d="M681.965 688.105C685 688.549 685 688.549 687.746 689.288C687.365 691.239 686.983 693.191 686.59 695.201C684.682 695.201 682.774 695.201 680.809 695.201C680.086 692.984 680.086 692.984 679.652 690.471C680.415 689.69 681.179 688.91 681.965 688.105Z" fill="#769DB4"/>
<path d="M838.492 811.055C841.124 810.661 841.124 810.661 844.183 811.055C846.253 814.061 847.598 816.047 847.598 819.883C844.011 819.453 842.353 819.15 839.844 816.178C838.492 813.577 838.492 813.577 838.492 811.055Z" fill="#7FA4B5"/>
<path d="M654.648 789.473C656.889 790.269 656.889 790.269 659.273 791.79C660.141 794.831 660.141 794.831 660.43 797.582C658.522 797.582 656.614 797.582 654.648 797.582C653.885 795.671 653.122 793.759 652.336 791.79C653.099 791.025 653.862 790.26 654.648 789.473Z" fill="#80A4B4"/>
<path d="M722.145 801.637C723.146 802.454 724.148 803.272 725.18 804.115C724.846 806.977 724.512 809.838 724.168 812.787C723.166 812.378 722.165 811.969 721.133 811.548C720.5 807.986 720.5 807.986 720.121 804.115C720.789 803.297 721.457 802.479 722.145 801.637Z" fill="#7B9FAE"/>
<path d="M735.586 786.432C737.494 786.432 739.402 786.432 741.367 786.432C740.604 789.777 739.841 793.122 739.055 796.568C738.673 795.314 738.292 794.06 737.898 792.767C736.372 792.767 734.846 792.767 733.273 792.767C734.037 790.676 734.8 788.586 735.586 786.432Z" fill="#95B1BD"/>
<path d="M702.247 474.221C702.693 474.221 703.138 474.221 703.596 474.221C703.596 478.904 703.596 483.587 703.596 488.412C705.377 488.88 707.158 489.349 708.992 489.831C708.102 491.705 707.212 493.578 706.294 495.508C704.514 494.571 702.733 493.635 700.898 492.67C701.344 486.581 701.789 480.493 702.247 474.221Z" fill="#BBD5A3"/>
<path d="M480.597 814.814C482.85 815.583 485.104 816.351 487.426 817.143C487.426 818.68 487.426 820.217 487.426 821.801C484.154 821.947 484.154 821.947 480.597 821.801C479.845 821.032 479.094 820.264 478.32 819.472C479.072 819.472 479.823 819.472 480.597 819.472C480.597 817.935 480.597 816.398 480.597 814.814Z" fill="#8BABB8"/>
<path d="M633.113 811.773C635.021 811.773 636.929 811.773 638.895 811.773C639.658 814.45 640.421 817.126 641.207 819.883C637.972 819.436 636.789 818.954 634.559 816.48C633.113 814.09 633.113 814.09 633.113 811.773Z" fill="#7CA2B4"/>
<path d="M559.005 703.311C559.756 703.719 560.507 704.128 561.281 704.549C559.403 707.003 557.525 709.456 555.59 711.983C557.093 711.983 558.595 711.983 560.143 711.983C560.143 712.801 560.143 713.618 560.143 714.461C557.514 714.461 554.885 714.461 552.176 714.461C552.524 709.909 553.038 708.537 556.231 705.401C557.146 704.711 558.062 704.021 559.005 703.311Z" fill="#91B2BD"/>
<path d="M259.991 811.773C261.594 811.773 263.197 811.773 264.848 811.773C264.544 814.525 264.544 814.525 263.634 817.566C261.13 819.086 261.13 819.086 258.777 819.883C259.178 817.207 259.579 814.531 259.991 811.773Z" fill="#7DA2B3"/>
<path d="M873.902 775.281C875.572 775.281 877.241 775.281 878.961 775.281C878.961 777.288 878.961 779.295 878.961 781.363C877.292 781.363 875.622 781.363 873.902 781.363C873.902 779.356 873.902 777.349 873.902 775.281Z" fill="#779AAE"/>
<path d="M824.328 775.281C826.331 775.281 828.335 775.281 830.398 775.281C830.398 777.288 830.398 779.295 830.398 781.363C828.395 781.363 826.392 781.363 824.328 781.363C824.328 779.356 824.328 777.349 824.328 775.281Z" fill="#7A9DAE"/>
<path d="M557.849 220.803C558.338 220.803 558.826 220.803 559.33 220.803C558.841 227.414 558.352 234.026 557.849 240.838C559.315 241.31 560.782 241.782 562.293 242.269C559.36 243.685 559.36 243.685 556.367 245.131C556.327 241.881 556.299 238.631 556.275 235.382C556.249 232.667 556.249 232.667 556.223 229.898C556.367 225.096 556.367 225.096 557.849 220.803Z" fill="#E5F0D2"/>
<path d="M668.523 775.281C670.527 775.281 672.53 775.281 674.594 775.281C674.594 777.288 674.594 779.295 674.594 781.363C672.591 780.962 670.587 780.56 668.523 780.147C668.523 778.541 668.523 776.936 668.523 775.281Z" fill="#7098AD"/>
<path d="M725.686 807.719C726.854 808.095 728.023 808.471 729.227 808.859C728.503 812.237 727.747 813.855 725.686 816.842C724.907 816.842 724.127 816.842 723.325 816.842C722.935 815.336 722.546 813.831 722.145 812.28C722.924 812.28 723.703 812.28 724.505 812.28C724.895 810.775 725.284 809.27 725.686 807.719Z" fill="#8EACB8"/>
<path d="M434.816 816.842C437.821 816.842 440.826 816.842 443.922 816.842C443.922 818.18 443.922 819.518 443.922 820.896C441.293 820.896 438.663 820.896 435.955 820.896C435.579 819.558 435.203 818.22 434.816 816.842Z" fill="#79A1B4"/>
<path d="M557.867 557.342C558.326 557.342 558.785 557.342 559.258 557.342C559.258 561.557 559.258 565.771 559.258 570.114C555.258 571.001 555.258 571.001 550.911 571.533C549.993 570.597 549.075 569.66 548.129 568.695C552.949 567.992 552.949 567.992 557.867 567.276C557.867 563.998 557.867 560.719 557.867 557.342Z" fill="#DEEDE5"/>
<path d="M512.314 793.527C513.115 793.527 513.917 793.527 514.742 793.527C514.342 795.869 513.941 798.211 513.528 800.623C511.926 800.623 510.323 800.623 508.672 800.623C509.368 797.232 509.718 796.056 512.314 793.527Z" fill="#7298A9"/>
<path d="M639.184 811.773C639.555 812.902 639.926 814.031 640.308 815.195C643.275 815.571 646.243 815.947 649.301 816.335C649.301 816.711 649.301 817.088 649.301 817.475C648.397 817.616 647.492 817.758 646.561 817.903C645.135 818.256 645.135 818.256 643.68 818.616C643.309 819.368 642.938 820.121 642.556 820.896C641.443 820.52 640.33 820.144 639.184 819.756C639.926 819.756 640.667 819.756 641.432 819.756C640.69 818.627 639.948 817.498 639.184 816.335C639.184 814.83 639.184 813.324 639.184 811.773Z" fill="#97B4C2"/>
<path d="M474.273 812.787C475.075 812.787 475.876 812.787 476.702 812.787C479.298 815.316 479.648 816.492 480.344 819.883C478.741 819.493 477.139 819.102 475.487 818.7C475.087 816.749 474.686 814.798 474.273 812.787Z" fill="#719AAA"/>
<path d="M361.163 787.445C362.766 788.226 364.368 789.006 366.02 789.811C366.02 791.372 366.02 792.933 366.02 794.541C364.417 794.151 362.814 793.76 361.163 793.358C360.48 791.067 360.48 791.067 359.949 788.628C360.35 788.238 360.75 787.847 361.163 787.445Z" fill="#759BAD"/>
<path d="M721.807 797.582C722.586 798.729 723.365 799.876 724.168 801.057C722.686 803.966 721.216 804.384 718.266 805.691C717.877 803.78 717.487 801.868 717.086 799.899C718.254 799.899 719.423 799.899 720.627 799.899C721.016 799.134 721.406 798.37 721.807 797.582Z" fill="#8CACB9"/>
<path d="M640.701 553.287C641.536 553.287 642.371 553.287 643.23 553.287C642.813 556.632 642.396 559.977 641.966 563.424C641.131 563.424 640.296 563.424 639.437 563.424C638.646 559.985 638.646 559.985 638.172 556.183C639.007 555.228 639.841 554.272 640.701 553.287Z" fill="#91BA71"/>
<path d="M376.39 256.281C377.224 256.281 378.059 256.281 378.919 256.281C379.336 258.155 379.754 260.028 380.184 261.958C378.514 262.426 376.845 262.894 375.125 263.377C375.125 257.7 375.125 257.7 376.39 256.281Z" fill="#90B86A"/>
<defs>
<filter id="filter0_dd_82_358" x="0" y="0" width="1074" height="1072" filterUnits="userSpaceOnUse" color-interpolation-filters="sRGB">
<feFlood flood-opacity="0" result="BackgroundImageFix"/>
<feColorMatrix in="SourceAlpha" type="matrix" values="0 0 0 0 0 0 0 0 0 0 0 0 0 0 0 0 0 0 127 0" result="hardAlpha"/>
<feOffset dy="4"/>
<feGaussianBlur stdDeviation="2"/>
<feComposite in2="hardAlpha" operator="out"/>
<feColorMatrix type="matrix" values="0 0 0 0 0 0 0 0 0 0 0 0 0 0 0 0 0 0 0.25 0"/>
<feBlend mode="normal" in2="BackgroundImageFix" result="effect1_dropShadow_82_358"/>
<feColorMatrix in="SourceAlpha" type="matrix" values="0 0 0 0 0 0 0 0 0 0 0 0 0 0 0 0 0 0 127 0" result="hardAlpha"/>
<feOffset dy="4"/>
<feGaussianBlur stdDeviation="2"/>
<feComposite in2="hardAlpha" operator="out"/>
<feColorMatrix type="matrix" values="0 0 0 0 0 0 0 0 0 0 0 0 0 0 0 0 0 0 0.25 0"/>
<feBlend mode="normal" in2="effect1_dropShadow_82_358" result="effect2_dropShadow_82_358"/>
<feBlend mode="normal" in="SourceGraphic" in2="effect2_dropShadow_82_358" result="shape"/>
</filter>
</defs>
</svg>
